<svg xmlns="http://www.w3.org/2000/svg" xmlns:xlink="http://www.w3.org/1999/xlink" fill="none" version="1.1" width="150" height="150" viewBox="0 0 150 150"><g style="mix-blend-mode:passthrough"><g style="mix-blend-mode:passthrough"><g><path d="M33.03538567578125,65.76484838867188L52.62021767578125,46.180018388671876C53.58581767578125,44.891125388671874,55.51871767578125,44.891125388671874,56.48431767578125,46.180018388671876C57.773217675781254,47.145608388671874,57.773217675781254,49.078518388671874,56.48431767578125,50.04410838867187L36.89947767578125,69.62894838867187C35.93388767578125,70.91784838867187,34.00097767578125,70.91784838867187,33.03538567578125,69.62894838867187C31.75389667578125,68.66684838867187,31.74808067578125,66.74624838867187,33.02372367578125,65.77644838867187L33.03538567578125,65.76484838867188Z" fill="#D4FBFF" fill-opacity="1"/></g><g><path d="M63.9558603125,41.670626865234375L89.0607703125,53.375611865234376C90.5994703125,53.84491186523437,91.2593703125,55.65781186523438,90.3824703125,57.00651186523437C89.9131703125,58.545111865234375,88.1002703125,59.20511186523437,86.7516703125,58.32821186523438L61.6506303125,46.623191865234375C60.1093253125,46.156681865234376,59.4481983125,44.340531865234375,60.3289113125,42.992351865234376C60.7960883125,41.45389286523437,62.6084003125,40.79346086523437,63.9558603125,41.670626865234375Z" fill="#D4FBFF" fill-opacity="1"/></g><g><path d="M93.38359041796875,48.496970703125L111.91877841796875,27.913090703125C112.81747841796874,26.577577703125,114.74577841796875,26.476601703125,115.77897841796874,27.710943703125C117.11447841796875,28.609600703125,117.21547841796875,30.537910703125,115.98117841796875,31.571150703125L97.44593841796875,52.154970703125C96.54917841796875,53.493870703125,94.61743841796876,53.595070703125,93.58573841796876,52.357170703125C92.24578441796875,51.461770703125,92.14267941796875,49.529870703125,93.37970541796875,48.496970703125L93.38359041796875,48.496970703125Z" fill="#D4FBFF" fill-opacity="1"/></g><g><path d="M27.620198828124998,104.19972021484375L33.816698828125,104.19972021484375C37.842298828124996,104.19972021484375,41.105598828125,107.46302021484375,41.105598828125,111.48862021484375L41.105598828125,126.43182021484375L20.331298828125,126.43182021484375L20.331298828125,111.48862021484375C20.331298828125,107.46302021484375,23.594648828125,104.19972021484375,27.620198828124998,104.19972021484375ZM86.479598828125,91.26242021484376L93.025998828125,91.26242021484376C97.051498828125,91.26242021484376,100.314898828125,94.52572021484374,100.314898828125,98.55132021484374L100.314898828125,126.43182021484375L79.178998828125,126.43182021484375L79.178998828125,98.55132021484374C79.178998828125,94.52122021484375,82.449498828125,91.25592021484374,86.479598828125,91.26242021484376ZM56.958498828125,76.13642021484375L63.155098828125,76.13642021484375C67.180598828125,76.13642021484375,70.44399882812499,79.39982021484374,70.44399882812499,83.42532021484375L70.44399882812499,126.43182021484375L49.669598828125004,126.43182021484375L49.669598828125004,83.42532021484375C49.669598828125004,79.39982021484374,52.932998828125,76.13642021484375,56.958498828125,76.13642021484375ZM116.179398828125,57.55072021484375L122.741298828125,57.55072021484375C126.767298828125,57.55072021484375,130.030298828125,60.81407021484375,130.030298828125,64.83962021484375L130.030298828125,126.43182021484375L108.894398828125,126.43182021484375L108.894398828125,64.83962021484375C108.894398828125,60.81559021484375,112.155398828125,57.55287343484375,116.179398828125,57.55072021484375Z" fill="#FFD7E5" fill-opacity="1"/></g><g><path d="M7.94209,130.80515218828126L142.058,130.80515218828126C143.759,130.56250948828125,145.216,132.02007548828124,144.973,133.72071548828126C145.216,135.42135548828125,143.759,136.87891548828125,142.058,136.63627548828126L7.94209,136.63627548828126C6.24145,136.87891548828125,4.783879,135.42135548828125,5.0265282,133.72071548828126C4.783879,132.02007548828124,6.24145,130.56250948828125,7.94209,130.80515218828126Z" fill="#FA759E" fill-opacity="1"/></g><g><path d="M40.37883408203125,73.49688215820312Q40.37883408203125,73.73174215820313,40.367234082031246,73.96636215820313Q40.35573408203125,74.20086215820312,40.33273408203125,74.43456215820312Q40.309734082031255,74.66836215820312,40.27523408203125,74.90066215820312Q40.24073408203125,75.13296215820313,40.19493408203125,75.36326215820313Q40.14913408203125,75.59366215820313,40.09203408203125,75.82146215820313Q40.035034082031245,76.04926215820312,39.966834082031255,76.27406215820312Q39.89863408203125,76.49876215820312,39.819534082031254,76.71986215820313Q39.74043408203125,76.94096215820312,39.65053408203125,77.15796215820312Q39.56063408203125,77.37496215820312,39.46023408203125,77.58726215820312Q39.35983408203125,77.79956215820313,39.24913408203125,78.00666215820313Q39.13843408203125,78.21386215820313,39.017734082031254,78.41526215820312Q38.89693408203125,78.61666215820313,38.76643408203125,78.81196215820313Q38.63603408203125,79.00726215820312,38.49613408203125,79.19586215820313Q38.35623408203125,79.38456215820312,38.20723408203125,79.56606215820312Q38.05823408203125,79.74766215820313,37.90053408203125,79.92166215820312Q37.74273408203125,80.09566215820313,37.57673408203125,80.26176215820313Q37.41063408203125,80.42776215820312,37.23663408203125,80.58546215820313Q37.06263408203125,80.74326215820312,36.88103408203125,80.89226215820312Q36.69953408203125,81.04116215820312,36.51083408203125,81.18116215820312Q36.32223408203125,81.32106215820312,36.12693408203125,81.45146215820313Q35.93173408203125,81.58196215820313,35.73023408203125,81.70266215820313Q35.52883408203125,81.82346215820313,35.32163408203125,81.93416215820312Q35.11453408203125,82.04486215820313,34.90223408203125,82.14526215820312Q34.68993408203125,82.24566215820312,34.47293408203125,82.33556215820312Q34.25603408203125,82.42546215820312,34.03483408203125,82.50456215820313Q33.813734082031246,82.58366215820313,33.58903408203125,82.65186215820313Q33.36423408203125,82.72006215820312,33.13643408203125,82.77706215820312Q32.90863408203125,82.83416215820313,32.67823408203125,82.87996215820313Q32.44793408203125,82.92576215820313,32.21563408203125,82.96026215820312Q31.98333408203125,82.99476215820313,31.74963408203125,83.01776215820313Q31.515834082031247,83.04076215820312,31.28133408203125,83.05226215820312Q31.04671408203125,83.06386215820312,30.81186408203125,83.06386215820312Q30.57700408203125,83.06386215820312,30.34243408203125,83.05226215820312Q30.10786408203125,83.04076215820312,29.87413408203125,83.01776215820313Q29.64041408203125,82.99476215820313,29.40810408203125,82.96026215820312Q29.17578408203125,82.92576215820313,28.94544408203125,82.87996215820313Q28.71510408203125,82.83416215820313,28.487284082031252,82.77706215820312Q28.25947408203125,82.72006215820312,28.03472408203125,82.65186215820313Q27.80998408203125,82.58366215820313,27.58886408203125,82.50456215820313Q27.367734082031248,82.42546215820312,27.15075408203125,82.33556215820312Q26.93377408203125,82.24566215820312,26.72147408203125,82.14526215820312Q26.50916408203125,82.04486215820313,26.30204408203125,81.93416215820312Q26.094914082031252,81.82346215820313,25.89347408203125,81.70276215820313Q25.69203408203125,81.58196215820313,25.496764082031248,81.45146215820313Q25.30148408203125,81.32106215820312,25.112844082031252,81.18116215820312Q24.92421408203125,81.04116215820312,24.74266408203125,80.89226215820312Q24.56112408203125,80.74326215820312,24.38710408203125,80.58556215820312Q24.21309408203125,80.42776215820312,24.04702408203125,80.26176215820313Q23.88095408203125,80.09566215820313,23.72323408203125,79.92166215820312Q23.56551408203125,79.74766215820313,23.416524082031252,79.56606215820312Q23.26753408203125,79.38456215820312,23.12763408203125,79.19586215820313Q22.98773408203125,79.00726215820312,22.85725408203125,78.81196215820313Q22.72677408203125,78.61666215820313,22.60603408203125,78.41526215820312Q22.48529408203125,78.21386215820313,22.37458408203125,78.00666215820313Q22.26387408203125,77.79956215820313,22.16346108203125,77.58726215820312Q22.06304808203125,77.37496215820312,21.97317308203125,77.15796215820312Q21.88329808203125,76.94106215820312,21.80417808203125,76.71986215820313Q21.72505708203125,76.49876215820312,21.65688308203125,76.27406215820312Q21.58870808203125,76.04926215820312,21.53164308203125,75.82146215820313Q21.47457808203125,75.59366215820313,21.42876008203125,75.36326215820313Q21.38294208203125,75.13296215820313,21.34848208203125,74.90066215820312Q21.31402128203125,74.66836215820312,21.29100148203125,74.43456215820312Q21.26798168203125,74.20086215820312,21.25645788203125,73.96636215820313Q21.24493408203125,73.73174215820313,21.24493408203125,73.49688215820312Q21.24493408203125,73.26203215820313,21.25645788203125,73.02746215820312Q21.26798168203125,72.79288215820313,21.29100148203125,72.55916215820312Q21.31402128203125,72.32544215820312,21.34848208203125,72.09312215820313Q21.38294208203125,71.86081215820313,21.42876008203125,71.63047215820312Q21.47457808203125,71.40013215820312,21.53164308203125,71.17231215820313Q21.58870808203125,70.94449215820312,21.65688308203125,70.71975215820312Q21.72505708203125,70.49501215820312,21.80417808203125,70.27388215820312Q21.88329808203125,70.05275215820312,21.97317308203125,69.83578215820313Q22.06304808203125,69.61880215820312,22.16346108203125,69.40649215820312Q22.26387408203125,69.19419215820312,22.37458408203125,68.98706215820313Q22.48529408203125,68.77994215820313,22.60603408203125,68.57850215820312Q22.72677408203125,68.37706215820313,22.85725408203125,68.18178215820312Q22.98773408203125,67.98651215820313,23.12763408203125,67.79787215820312Q23.26753408203125,67.60923215820313,23.416524082031252,67.42769215820313Q23.56551408203125,67.24614215820313,23.72323408203125,67.07213215820312Q23.88095408203125,66.89811215820312,24.04702408203125,66.73204215820313Q24.21309408203125,66.56598215820313,24.38710408203125,66.40826215820313Q24.56112408203125,66.25054215820313,24.74266408203125,66.10155215820312Q24.92421408203125,65.95256215820312,25.112854082031248,65.81265215820312Q25.30148408203125,65.67275215820312,25.496764082031248,65.54227215820312Q25.69203408203125,65.41179215820313,25.89347408203125,65.29105215820313Q26.094914082031252,65.17031215820313,26.30204408203125,65.05960215820312Q26.50916408203125,64.94889215820312,26.72147408203125,64.84848415820312Q26.93377408203125,64.74807015820312,27.15075408203125,64.65819515820313Q27.367734082031248,64.56832015820312,27.58886408203125,64.48920015820312Q27.80998408203125,64.41007915820313,28.03472408203125,64.34190515820312Q28.25947408203125,64.27373015820312,28.487284082031252,64.21666515820313Q28.71510408203125,64.15960015820312,28.94544408203125,64.11378215820312Q29.17578408203125,64.06796415820313,29.40810408203125,64.03350415820313Q29.64041408203125,63.999043358203124,29.87413408203125,63.976023558203124Q30.10786408203125,63.953003758203124,30.34243408203125,63.941480058203126Q30.57700408203125,63.92995622648313,30.81186408203125,63.92995622648313Q31.04671408203125,63.92995622648313,31.28133408203125,63.941480058203126Q31.515834082031247,63.953003758203124,31.74963408203125,63.976023558203124Q31.98333408203125,63.999043358203124,32.21563408203125,64.03350415820313Q32.44793408203125,64.06796415820313,32.67823408203125,64.11378215820312Q32.90863408203125,64.15960015820312,33.13643408203125,64.21666515820313Q33.36423408203125,64.27373015820312,33.58903408203125,64.34190515820312Q33.813734082031246,64.41007915820313,34.03483408203125,64.48920015820312Q34.25603408203125,64.56832015820312,34.47293408203125,64.65819515820313Q34.68993408203125,64.74807015820312,34.90223408203125,64.84848415820312Q35.11453408203125,64.94889215820312,35.32163408203125,65.05960215820312Q35.52883408203125,65.17031215820313,35.73023408203125,65.29105215820313Q35.93173408203125,65.41179215820313,36.12693408203125,65.54227215820312Q36.32223408203125,65.67275215820312,36.51083408203125,65.81265215820312Q36.69953408203125,65.95256215820312,36.88103408203125,66.10155215820312Q37.06263408203125,66.25054215820313,37.23663408203125,66.40826215820313Q37.41063408203125,66.56598215820313,37.57673408203125,66.73204215820313Q37.74273408203125,66.89811215820312,37.90053408203125,67.07213215820312Q38.05823408203125,67.24614215820313,38.20723408203125,67.42769215820313Q38.35623408203125,67.60923215820313,38.49613408203125,67.79787215820312Q38.63603408203125,67.98651215820313,38.76643408203125,68.18178215820312Q38.89693408203125,68.37706215820313,39.017734082031254,68.57850215820312Q39.13843408203125,68.77994215820313,39.24913408203125,68.98706215820313Q39.35983408203125,69.19419215820312,39.46023408203125,69.40649215820312Q39.56063408203125,69.61880215820312,39.65053408203125,69.83578215820313Q39.74043408203125,70.05276215820312,39.819534082031254,70.27388215820312Q39.89863408203125,70.49501215820312,39.966834082031255,70.71975215820312Q40.035034082031245,70.94449215820312,40.09203408203125,71.17231215820313Q40.14913408203125,71.40013215820312,40.19493408203125,71.63047215820312Q40.24073408203125,71.86081215820313,40.27523408203125,72.09312215820313Q40.309734082031255,72.32544215820312,40.33273408203125,72.55916215820312Q40.35573408203125,72.79288215820313,40.367234082031246,73.02746215820312Q40.37883408203125,73.26203215820313,40.37883408203125,73.49688215820312Z" fill="#6DC9F7" fill-opacity="1"/></g><g><path d="M69.7170298828125,42.700810615234374Q69.7170298828125,42.935660615234376,69.7054298828125,43.170280615234375Q69.6939298828125,43.40478061523437,69.6709298828125,43.638580615234375Q69.6479298828125,43.872280615234374,69.6134298828125,44.104580615234376Q69.5789298828125,44.33688061523438,69.5331298828125,44.56718061523438Q69.4873298828125,44.797580615234374,69.4302298828125,45.025380615234376Q69.3732298828125,45.25318061523438,69.3050298828125,45.47798061523437Q69.2368298828125,45.70268061523437,69.1577298828125,45.92378061523438Q69.07862988281249,46.144980615234374,68.98872988281249,46.36188061523438Q68.89882988281249,46.578880615234375,68.7984298828125,46.791180615234374Q68.6980298828125,47.00348061523437,68.5873298828125,47.21058061523438Q68.4766298828125,47.41778061523438,68.3559298828125,47.61918061523438Q68.2351298828125,47.82068061523437,68.1046298828125,48.01588061523437Q67.9742298828125,48.211180615234376,67.8343298828125,48.39978061523438Q67.6944298828125,48.588480615234374,67.5454298828125,48.769980615234374Q67.3964298828125,48.95158061523438,67.23872988281249,49.12558061523438Q67.0809298828125,49.299580615234376,66.9149298828125,49.465680615234376Q66.7488298828125,49.63168061523437,66.5748298828125,49.789480615234375Q66.4008298828125,49.94718061523437,66.2192298828125,50.096180615234374Q66.0377298828125,50.245180615234375,65.8490298828125,50.38508061523437Q65.6604298828125,50.52498061523438,65.4651298828125,50.65538061523438Q65.2699298828125,50.785880615234376,65.0684298828125,50.90668061523438Q64.8670298828125,51.02738061523438,64.6598298828125,51.13808061523437Q64.4527298828125,51.248780615234374,64.24042988281249,51.349180615234374Q64.0281298828125,51.449580615234375,63.8111298828125,51.539480615234375Q63.5942298828125,51.629380615234375,63.3730298828125,51.70848061523438Q63.151929882812496,51.787580615234376,62.9272298828125,51.85578061523438Q62.7024298828125,51.92398061523437,62.4746298828125,51.98098061523437Q62.2468298828125,52.03808061523438,62.0164298828125,52.08388061523438Q61.7861298828125,52.12968061523438,61.5538298828125,52.16418061523437Q61.3215298828125,52.19868061523438,61.0878298828125,52.221680615234376Q60.8540298828125,52.24468061523437,60.6195298828125,52.25618061523437Q60.3849098828125,52.26778061523437,60.1500598828125,52.26778061523437Q59.9151998828125,52.26778061523437,59.6806298828125,52.25618061523437Q59.4460598828125,52.24468061523437,59.2123298828125,52.221680615234376Q58.9786098828125,52.19868061523438,58.7462998828125,52.16418061523437Q58.5139798828125,52.12968061523438,58.2836398828125,52.08388061523438Q58.0532998828125,52.03808061523438,57.8254798828125,51.98098061523437Q57.5976698828125,51.92398061523437,57.372919882812496,51.85578061523438Q57.1481798828125,51.787580615234376,56.9270598828125,51.70848061523438Q56.7059298828125,51.629380615234375,56.4889498828125,51.539480615234375Q56.2719698828125,51.449580615234375,56.0596698828125,51.349180615234374Q55.8473598828125,51.248780615234374,55.6402398828125,51.13808061523437Q55.4331098828125,51.02738061523438,55.2316698828125,50.90668061523438Q55.0302298828125,50.785880615234376,54.8349598828125,50.65538061523438Q54.6396798828125,50.52498061523438,54.4510398828125,50.38508061523437Q54.2624098828125,50.245180615234375,54.0808598828125,50.096180615234374Q53.8993198828125,49.94718061523437,53.7252998828125,49.789480615234375Q53.5512898828125,49.63168061523437,53.3852198828125,49.465680615234376Q53.2191498828125,49.299580615234376,53.0614298828125,49.12558061523438Q52.9037098828125,48.95158061523438,52.7547198828125,48.769980615234374Q52.6057298828125,48.588480615234374,52.4658298828125,48.39978061523438Q52.3259298828125,48.211180615234376,52.1954498828125,48.01588061523437Q52.0649698828125,47.82068061523437,51.9442298828125,47.61918061523438Q51.8234898828125,47.41778061523438,51.7127798828125,47.21058061523438Q51.6020698828125,47.00348061523437,51.5016568828125,46.791180615234374Q51.4012438828125,46.578880615234375,51.3113688828125,46.36188061523438Q51.2214938828125,46.144980615234374,51.1423738828125,45.92378061523438Q51.0632528828125,45.70268061523437,50.9950788828125,45.47798061523437Q50.9269038828125,45.25318061523438,50.8698388828125,45.025380615234376Q50.8127738828125,44.797580615234374,50.7669558828125,44.56718061523438Q50.7211378828125,44.33688061523438,50.6866778828125,44.104580615234376Q50.6522170828125,43.872280615234374,50.6291972828125,43.638580615234375Q50.6061774828125,43.40478061523437,50.5946536828125,43.170280615234375Q50.5831298828125,42.935660615234376,50.5831298828125,42.700810615234374Q50.5831298828125,42.46595061523438,50.5946536828125,42.23138061523437Q50.6061774828125,41.996810615234374,50.6291972828125,41.76308061523437Q50.6522170828125,41.529360615234374,50.6866778828125,41.297050615234376Q50.7211378828125,41.064730615234375,50.7669558828125,40.834390615234376Q50.8127738828125,40.60405061523438,50.8698388828125,40.37623061523438Q50.9269038828125,40.14842061523437,50.9950788828125,39.92367061523437Q51.0632528828125,39.698930615234374,51.1423738828125,39.47780061523437Q51.2214938828125,39.25668061523437,51.3113688828125,39.03970061523437Q51.4012438828125,38.822720615234374,51.5016568828125,38.610420615234375Q51.6020698828125,38.39811061523437,51.7127798828125,38.19099061523438Q51.8234898828125,37.98386061523438,51.9442298828125,37.78242061523437Q52.0649698828125,37.580980615234374,52.1954498828125,37.38571061523437Q52.3259298828125,37.190430615234376,52.4658298828125,37.00179061523438Q52.6057298828125,36.81316061523437,52.7547198828125,36.63161061523437Q52.9037098828125,36.450070615234374,53.0614298828125,36.276050615234375Q53.2191498828125,36.102030615234376,53.3852198828125,35.935970615234375Q53.5512898828125,35.76990061523438,53.7252998828125,35.61218061523437Q53.8993198828125,35.454460615234375,54.0808598828125,35.30547061523438Q54.2624098828125,35.15648061523437,54.4510498828125,35.016580615234375Q54.6396798828125,34.876670615234374,54.8349598828125,34.74620061523437Q55.0302298828125,34.61572061523437,55.2316698828125,34.494980615234375Q55.4331098828125,34.37424061523438,55.6402398828125,34.26353061523437Q55.8473598828125,34.152820615234376,56.0596698828125,34.05240561523438Q56.2719698828125,33.95199161523438,56.4889498828125,33.86211661523438Q56.7059298828125,33.77224161523438,56.9270598828125,33.693121615234375Q57.1481798828125,33.61400161523437,57.372919882812496,33.545826615234375Q57.5976698828125,33.47765161523437,57.8254798828125,33.42058661523438Q58.0532998828125,33.363521615234376,58.2836398828125,33.31770361523437Q58.5139798828125,33.271885615234375,58.7462998828125,33.23742561523437Q58.9786098828125,33.202964815234374,59.2123298828125,33.179945015234374Q59.4460598828125,33.156925215234374,59.6806298828125,33.145401415234375Q59.9151998828125,33.13387764937438,60.1500598828125,33.13387764937438Q60.3849098828125,33.13387764937438,60.6195298828125,33.145401415234375Q60.8540298828125,33.156925215234374,61.0878298828125,33.179945015234374Q61.3215298828125,33.202964815234374,61.5538298828125,33.23742561523437Q61.7861298828125,33.271885615234375,62.0164298828125,33.31770361523437Q62.2468298828125,33.363521615234376,62.4746298828125,33.42058661523438Q62.7024298828125,33.47765161523437,62.9272298828125,33.545826615234375Q63.151929882812496,33.61400161523437,63.3730298828125,33.693121615234375Q63.5942298828125,33.77224161523438,63.8111298828125,33.86211661523438Q64.0281298828125,33.95199161523438,64.24042988281249,34.05240561523438Q64.4527298828125,34.152820615234376,64.6598298828125,34.26353061523437Q64.8670298828125,34.37424061523438,65.0684298828125,34.494980615234375Q65.2699298828125,34.61572061523437,65.4651298828125,34.74620061523437Q65.6604298828125,34.876670615234374,65.8490298828125,35.016580615234375Q66.0377298828125,35.15648061523437,66.2192298828125,35.30547061523438Q66.4008298828125,35.454460615234375,66.5748298828125,35.61218061523437Q66.7488298828125,35.76990061523438,66.9149298828125,35.935970615234375Q67.0809298828125,36.102030615234376,67.23872988281249,36.276050615234375Q67.3964298828125,36.450070615234374,67.5454298828125,36.63161061523437Q67.6944298828125,36.81316061523437,67.8343298828125,37.00179061523438Q67.9742298828125,37.190430615234376,68.1046298828125,37.38570061523438Q68.2351298828125,37.580980615234374,68.3559298828125,37.78242061523437Q68.4766298828125,37.98386061523438,68.5873298828125,38.19099061523438Q68.6980298828125,38.39811061523437,68.7984298828125,38.610420615234375Q68.89882988281249,38.822720615234374,68.98872988281249,39.03970061523437Q69.07862988281249,39.25668061523437,69.1577298828125,39.47780061523437Q69.2368298828125,39.698930615234374,69.3050298828125,39.92367061523437Q69.3732298828125,40.14842061523437,69.4302298828125,40.37623061523438Q69.4873298828125,40.60405061523438,69.5331298828125,40.834390615234376Q69.5789298828125,41.064730615234375,69.6134298828125,41.297050615234376Q69.6479298828125,41.529360615234374,69.6709298828125,41.76308061523437Q69.6939298828125,41.996810615234374,69.7054298828125,42.23138061523437Q69.7170298828125,42.46595061523438,69.7170298828125,42.700810615234374Z" fill="#6DC9F7" fill-opacity="1"/></g><g><path d="M99.2341197265625,56.547734443359374Q99.2341197265625,56.782584443359376,99.2225197265625,57.017204443359375Q99.2110197265625,57.25170444335937,99.1880197265625,57.485504443359375Q99.1650197265625,57.719204443359374,99.1305197265625,57.951504443359376Q99.0960197265625,58.18380444335938,99.0502197265625,58.41410444335938Q99.0044197265625,58.644504443359374,98.9473197265625,58.872304443359376Q98.8903197265625,59.10010444335938,98.8221197265625,59.32490444335937Q98.7539197265625,59.54960444335937,98.6748197265625,59.77070444335938Q98.59571972656249,59.991904443359374,98.50581972656249,60.20880444335938Q98.41591972656249,60.425804443359375,98.3155197265625,60.638104443359374Q98.2151197265625,60.85040444335937,98.1044197265625,61.05750444335938Q97.9937197265625,61.26470444335938,97.8730197265625,61.46610444335938Q97.7522197265625,61.66760444335937,97.6217197265625,61.86280444335937Q97.4913197265625,62.058104443359376,97.3514197265625,62.24670444335938Q97.2115197265625,62.435404443359374,97.0625197265625,62.616904443359374Q96.9135197265625,62.79850444335938,96.75581972656249,62.97250444335938Q96.5980197265625,63.146504443359376,96.4320197265625,63.312604443359376Q96.2659197265625,63.47860444335937,96.0919197265625,63.636404443359375Q95.9179197265625,63.79410444335937,95.7363197265625,63.943104443359374Q95.5548197265625,64.09210444335937,95.3661197265625,64.23200444335937Q95.1775197265625,64.37190444335937,94.9822197265625,64.50230444335938Q94.7870197265625,64.63280444335938,94.5855197265625,64.75360444335938Q94.3841197265625,64.87430444335938,94.1769197265625,64.98500444335937Q93.9698197265625,65.09570444335938,93.75751972656249,65.19610444335937Q93.5452197265625,65.29650444335937,93.3282197265625,65.38640444335937Q93.1113197265625,65.47630444335937,92.8901197265625,65.55540444335938Q92.6690197265625,65.63450444335938,92.4443197265625,65.70270444335938Q92.2195197265625,65.77090444335937,91.99171972656251,65.82790444335937Q91.7639197265625,65.88500444335938,91.5335197265625,65.93080444335938Q91.3032197265625,65.97660444335938,91.0709197265625,66.01110444335937Q90.8386197265625,66.04560444335938,90.6049197265625,66.06860444335938Q90.3711197265625,66.09160444335937,90.1366197265625,66.10310444335937Q89.90199972656251,66.11470444335937,89.6671497265625,66.11470444335937Q89.4322897265625,66.11470444335937,89.1977197265625,66.10310444335937Q88.9631497265625,66.09160444335937,88.7294197265625,66.06860444335938Q88.49569972656249,66.04560444335938,88.2633897265625,66.01110444335937Q88.0310697265625,65.97660444335938,87.8007297265625,65.93080444335938Q87.5703897265625,65.88500444335938,87.3425697265625,65.82790444335937Q87.1147597265625,65.77090444335937,86.8900097265625,65.70270444335938Q86.6652697265625,65.63450444335938,86.4441497265625,65.55540444335938Q86.2230197265625,65.47630444335937,86.0060397265625,65.38640444335937Q85.7890597265625,65.29650444335937,85.5767597265625,65.19610444335937Q85.3644497265625,65.09570444335938,85.1573297265625,64.98500444335937Q84.9501997265625,64.87430444335938,84.7487597265625,64.75360444335938Q84.5473197265625,64.63280444335938,84.3520497265625,64.50230444335938Q84.1567697265625,64.37190444335937,83.9681297265625,64.23200444335937Q83.7794997265625,64.09210444335937,83.5979497265625,63.943104443359374Q83.4164097265625,63.79410444335937,83.2423897265625,63.636404443359375Q83.0683797265625,63.47860444335937,82.9023097265625,63.312604443359376Q82.7362397265625,63.146504443359376,82.5785197265625,62.97250444335938Q82.4207997265625,62.79850444335938,82.2718097265625,62.616904443359374Q82.1228197265625,62.435404443359374,81.9829197265625,62.24670444335938Q81.8430197265625,62.058104443359376,81.7125397265625,61.86280444335937Q81.5820597265625,61.66760444335937,81.4613197265625,61.46610444335938Q81.3405797265625,61.26470444335938,81.2298697265625,61.05750444335938Q81.1191597265625,60.85040444335937,81.0187467265625,60.638104443359374Q80.9183337265625,60.425804443359375,80.8284587265625,60.20880444335938Q80.7385837265625,59.991904443359374,80.6594637265625,59.77070444335938Q80.5803427265625,59.54960444335937,80.5121687265625,59.32490444335937Q80.4439937265625,59.10010444335938,80.3869287265625,58.872304443359376Q80.3298637265625,58.644504443359374,80.2840457265625,58.41410444335938Q80.2382277265625,58.18380444335938,80.2037677265625,57.951504443359376Q80.1693069265625,57.719204443359374,80.1462871265625,57.485504443359375Q80.1232673265625,57.25170444335937,80.1117435265625,57.017204443359375Q80.1002197265625,56.782584443359376,80.1002197265625,56.547734443359374Q80.1002197265625,56.31287444335938,80.1117435265625,56.07830444335937Q80.1232673265625,55.843734443359374,80.1462871265625,55.610014443359375Q80.1693069265625,55.376284443359374,80.2037677265625,55.143974443359376Q80.2382277265625,54.91166444335938,80.2840457265625,54.681314443359376Q80.3298637265625,54.45097444335938,80.3869287265625,54.22315444335938Q80.4439937265625,53.99534444335937,80.5121687265625,53.770604443359375Q80.5803427265625,53.545854443359374,80.6594637265625,53.324734443359375Q80.7385837265625,53.10360444335937,80.8284587265625,52.88662444335937Q80.9183337265625,52.66965444335938,81.0187467265625,52.457344443359375Q81.1191597265625,52.24503444335937,81.2298697265625,52.03791444335938Q81.3405797265625,51.83079444335937,81.4613197265625,51.62934444335937Q81.5820597265625,51.427904443359374,81.7125397265625,51.23263444335937Q81.8430197265625,51.037354443359376,81.9829197265625,50.84872444335937Q82.1228197265625,50.66008444335937,82.2718097265625,50.47853444335937Q82.4207997265625,50.296994443359374,82.5785197265625,50.122974443359375Q82.7362397265625,49.94896444335937,82.9023097265625,49.782894443359375Q83.0683797265625,49.61682444335938,83.2423897265625,49.45910444335937Q83.4164097265625,49.301384443359375,83.5979497265625,49.15239444335938Q83.7794997265625,49.00340444335937,83.9681397265625,48.863504443359375Q84.1567697265625,48.72360444335938,84.3520497265625,48.59312444335937Q84.5473197265625,48.46264444335937,84.7487597265625,48.341904443359375Q84.9501997265625,48.22116444335938,85.1573297265625,48.11045444335937Q85.3644497265625,47.999744443359376,85.5767597265625,47.89933144335937Q85.7890597265625,47.798918443359376,86.0060397265625,47.70904344335938Q86.2230197265625,47.61916844335938,86.4441497265625,47.540048443359375Q86.6652697265625,47.460927443359374,86.8900097265625,47.392753443359375Q87.1147597265625,47.32457844335938,87.3425697265625,47.26751344335938Q87.5703897265625,47.210448443359375,87.8007297265625,47.16463044335938Q88.0310697265625,47.118812443359374,88.2633897265625,47.08435244335938Q88.49569972656249,47.04989164335937,88.7294197265625,47.02687184335937Q88.9631497265625,47.00385204335937,89.1977197265625,46.992328243359374Q89.4322897265625,46.980804443359375,89.6671497265625,46.980804443359375Q89.90199972656251,46.980804443359375,90.1366197265625,46.992328243359374Q90.3711197265625,47.00385204335937,90.6049197265625,47.02687184335937Q90.8386197265625,47.04989164335937,91.0709197265625,47.08435244335938Q91.3032197265625,47.118812443359374,91.5335197265625,47.16463044335938Q91.7639197265625,47.210448443359375,91.99171972656251,47.26751344335938Q92.2195197265625,47.32457844335938,92.4443197265625,47.392753443359375Q92.6690197265625,47.460927443359374,92.8901197265625,47.540048443359375Q93.1113197265625,47.61916844335938,93.3282197265625,47.70904344335938Q93.5452197265625,47.798918443359376,93.75751972656249,47.89933144335937Q93.9698197265625,47.999744443359376,94.1769197265625,48.11045444335937Q94.3841197265625,48.22116444335938,94.5855197265625,48.341904443359375Q94.7870197265625,48.46264444335937,94.9822197265625,48.59312444335937Q95.1775197265625,48.72360444335938,95.3661197265625,48.863504443359375Q95.5548197265625,49.00340444335937,95.7363197265625,49.15239444335938Q95.9179197265625,49.301384443359375,96.0919197265625,49.45910444335937Q96.2659197265625,49.61682444335938,96.4320197265625,49.782894443359375Q96.5980197265625,49.94896444335937,96.75581972656249,50.122974443359375Q96.9135197265625,50.296994443359374,97.0625197265625,50.47853444335937Q97.2115197265625,50.66008444335937,97.3514197265625,50.84872444335937Q97.4913197265625,51.037354443359376,97.6217197265625,51.23263444335937Q97.7522197265625,51.427904443359374,97.8730197265625,51.62934444335937Q97.9937197265625,51.83079444335937,98.1044197265625,52.03791444335938Q98.2151197265625,52.24503444335937,98.3155197265625,52.457344443359375Q98.41591972656249,52.66965444335938,98.50581972656249,52.88662444335937Q98.59571972656249,53.10360444335937,98.6748197265625,53.324734443359375Q98.7539197265625,53.545854443359374,98.8221197265625,53.770604443359375Q98.8903197265625,53.99534444335937,98.9473197265625,54.22315444335938Q99.0044197265625,54.45097444335938,99.0502197265625,54.681314443359376Q99.0960197265625,54.91166444335938,99.1305197265625,55.143974443359376Q99.1650197265625,55.376284443359374,99.1880197265625,55.610014443359375Q99.2110197265625,55.843734443359374,99.2225197265625,56.07830444335937Q99.2341197265625,56.31287444335938,99.2341197265625,56.547734443359374Z" fill="#6DC9F7" fill-opacity="1"/></g><g><path d="M129.12071640625,23.56693Q129.12071640625,23.80178,129.10911640625,24.0364Q129.09761640625,24.270899999999997,129.07461640625002,24.5047Q129.05161640625,24.7384,129.01711640625,24.9707Q128.98261640625,25.203,128.93681640625,25.4333Q128.89101640625,25.6637,128.83391640625,25.8915Q128.77691640625,26.119300000000003,128.70871640625,26.344099999999997Q128.64051640625001,26.5688,128.56141640625,26.7899Q128.48231640625,27.0111,128.39241640625,27.228Q128.30251640625,27.445,128.20211640625,27.6573Q128.10171640625,27.8696,127.99101640625,28.076700000000002Q127.88031640625,28.2839,127.75961640625,28.485300000000002Q127.63881640625,28.686799999999998,127.50831640625,28.881999999999998Q127.37791640625,29.0773,127.23801640625,29.265900000000002Q127.09811640625,29.4546,126.94911640625,29.6361Q126.80011640625,29.817700000000002,126.64241640624999,29.9917Q126.48461640625,30.1657,126.31861640625,30.3318Q126.15251640625,30.4978,125.97851640625,30.6556Q125.80451640625,30.8133,125.62291640625,30.9623Q125.44141640625,31.1113,125.25271640625,31.2512Q125.06411640625,31.3911,124.86881640625,31.5215Q124.67361640625,31.652,124.47211640625,31.7728Q124.27071640625,31.8935,124.06351640625,32.0042Q123.85641640625,32.1149,123.64411640624999,32.2153Q123.43181640625,32.3157,123.21481640625,32.4056Q122.99791640625,32.4955,122.77671640625,32.574600000000004Q122.55561640625,32.6537,122.33091640625,32.721900000000005Q122.10611640625,32.790099999999995,121.87831640625001,32.8471Q121.65051640625,32.9042,121.42011640625,32.95Q121.18981640625,32.9958,120.95751640625,33.0303Q120.72521640625,33.064800000000005,120.49151640625,33.0878Q120.25771640625,33.1108,120.02321640625,33.122299999999996Q119.78859640625001,33.1339,119.55374640625,33.1339Q119.31888640625,33.1339,119.08431640625,33.122299999999996Q118.84974640625,33.1108,118.61601640625,33.0878Q118.38229640624999,33.064800000000005,118.14998640625,33.0303Q117.91766640625,32.9958,117.68732640625,32.95Q117.45698640625,32.9042,117.22916640625,32.8471Q117.00135640625,32.790099999999995,116.77660640625,32.721900000000005Q116.55186640625,32.6537,116.33074640625,32.574600000000004Q116.10961640625,32.4955,115.89263640625,32.4056Q115.67565640625,32.3157,115.46335640625,32.2153Q115.25104640625,32.1149,115.04392640625,32.0042Q114.83679640625,31.8935,114.63535640625,31.7728Q114.43391640625,31.652,114.23864640625,31.5215Q114.04336640625,31.3911,113.85472640625,31.2512Q113.66609640625,31.1113,113.48454640625,30.9623Q113.30300640625,30.8133,113.12898640625,30.6556Q112.95497640625,30.4978,112.78890640625,30.3318Q112.62283640625,30.1657,112.46511640625,29.9917Q112.30739640625,29.817700000000002,112.15840640625,29.6361Q112.00941640625,29.4546,111.86951640625,29.265900000000002Q111.72961640625,29.0773,111.59913640625,28.881999999999998Q111.46865640625,28.686799999999998,111.34791640625,28.485300000000002Q111.22717640625,28.2839,111.11646640625,28.076700000000002Q111.00575640625,27.8696,110.90534340625,27.6573Q110.80493040625,27.445,110.71505540625,27.228Q110.62518040625,27.0111,110.54606040625,26.7899Q110.46693940625,26.5688,110.39876540625,26.344099999999997Q110.33059040625,26.119300000000003,110.27352540625,25.8915Q110.21646040625,25.6637,110.17064240625,25.4333Q110.12482440625,25.203,110.09036440625,24.9707Q110.05590360625,24.7384,110.03288380625,24.5047Q110.00986400625,24.270899999999997,109.99834020625,24.0364Q109.98681640625,23.80178,109.98681640625,23.56693Q109.98681640625,23.33207,109.99834020625,23.0975Q110.00986400625,22.86293,110.03288380625,22.6292Q110.05590360625,22.39548,110.09036440625,22.16317Q110.12482440625,21.93085,110.17064240625,21.70051Q110.21646040625,21.47017,110.27352540625,21.242350000000002Q110.33059040625,21.01454,110.39876540625,20.78979Q110.46693940625,20.56505,110.54606040625,20.34393Q110.62518040625,20.122799999999998,110.71505540625,19.90582Q110.80493040625,19.68884,110.90534340625,19.47654Q111.00575640625,19.26423,111.11646640625,19.05711Q111.22717640625,18.849980000000002,111.34791640625,18.64854Q111.46865640625,18.4471,111.59913640625,18.251829999999998Q111.72961640625,18.05655,111.86951640625,17.867910000000002Q112.00941640625,17.67928,112.15840640625,17.49773Q112.30739640625,17.31619,112.46511640625,17.14217Q112.62283640625,16.96815,112.78890640625,16.80209Q112.95497640625,16.63602,113.12898640625,16.4783Q113.30300640625,16.32058,113.48454640625,16.171590000000002Q113.66609640625,16.0226,113.85473640625,15.8827Q114.04336640625,15.742799999999999,114.23864640625,15.61232Q114.43391640625,15.48184,114.63535640625,15.3611Q114.83679640625,15.240359999999999,115.04392640625,15.12965Q115.25104640625,15.01894,115.46335640625,14.918526Q115.67565640625,14.818113,115.89263640625,14.728238Q116.10961640625,14.638363,116.33074640625,14.559242Q116.55186640625,14.480122,116.77660640625,14.411947Q117.00135640625,14.343772,117.22916640625,14.286707Q117.45698640625,14.229642,117.68732640625,14.183824Q117.91766640625,14.138006,118.14998640625,14.103546Q118.38229640624999,14.0690857,118.61601640625,14.0460659Q118.84974640625,14.0230461,119.08431640625,14.0115223Q119.31888640625,13.99999851707,119.55374640625,13.99999851707Q119.78859640625001,13.99999851707,120.02321640625,14.0115223Q120.25771640625,14.0230461,120.49151640625,14.0460659Q120.72521640625,14.0690857,120.95751640625,14.103546Q121.18981640625,14.138006,121.42011640625,14.183824Q121.65051640625,14.229642,121.87831640625001,14.286707Q122.10611640625,14.343772,122.33091640625,14.411947Q122.55561640625,14.480122,122.77671640625,14.559242Q122.99791640625,14.638362,123.21481640625,14.728238Q123.43181640625,14.818113,123.64411640624999,14.918526Q123.85641640625,15.01894,124.06351640625,15.12965Q124.27071640625,15.240359999999999,124.47211640625,15.3611Q124.67361640625,15.48184,124.86881640625,15.61232Q125.06411640625,15.742799999999999,125.25271640625,15.8827Q125.44141640625,16.0226,125.62291640625,16.171590000000002Q125.80451640625,16.32058,125.97851640625,16.4783Q126.15251640625,16.63602,126.31861640625,16.80209Q126.48461640625,16.96815,126.64241640624999,17.14217Q126.80011640625,17.31619,126.94911640625,17.49773Q127.09811640625,17.67928,127.23801640625,17.867910000000002Q127.37791640625,18.05655,127.50831640625,18.251829999999998Q127.63881640625,18.4471,127.75961640625,18.64854Q127.88031640625,18.849980000000002,127.99101640625,19.05711Q128.10171640625,19.26423,128.20211640625,19.47654Q128.30251640625,19.68884,128.39241640625,19.90582Q128.48231640625,20.122799999999998,128.56141640625,20.34393Q128.64051640625001,20.56505,128.70871640625,20.78979Q128.77691640625,21.01454,128.83391640625,21.242350000000002Q128.89101640625,21.47017,128.93681640625,21.70051Q128.98261640625,21.93085,129.01711640625,22.16317Q129.05161640625,22.39548,129.07461640625002,22.6292Q129.09761640625,22.86293,129.10911640625,23.0975Q129.12071640625,23.33207,129.12071640625,23.56693Z" fill="#6DC9F7" fill-opacity="1"/></g></g></g></svg>