<?xml version="1.0" standalone="no"?>
<!DOCTYPE svg PUBLIC "-//W3C//DTD SVG 1.1//EN" "http://www.w3.org/Graphics/SVG/1.1/DTD/svg11.dtd"><svg t="1680008730002"
    class="icon" viewBox="0 0 1024 1024" version="1.1" xmlns="http://www.w3.org/2000/svg" p-id="40626"
    xmlns:xlink="http://www.w3.org/1999/xlink" width="100" height="100">
    <path
        d="M235.648 443.2896l128.9728-128.9728a15.8976 15.8976 0 0 1 25.4464 0 15.8976 15.8976 0 0 1 0 25.4464l-128.9728 128.9728a15.8976 15.8976 0 0 1-25.4464 0 15.8976 15.8976 0 0 1-0.0768-25.3696z"
        fill="#d4fbff" p-id="40627"></path>
    <path
        d="M439.2704 284.6208l165.3248 77.0816a15.9232 15.9232 0 0 1 8.704 23.9104 15.9232 15.9232 0 0 1-23.9104 8.704l-165.2992-77.0816a15.8976 15.8976 0 0 1-8.704-23.9104 15.8976 15.8976 0 0 1 23.8848-8.704z"
        fill="#d4fbff" p-id="40628"></path>
    <path
        d="M633.0624 329.5744l122.0608-135.552a15.9232 15.9232 0 0 1 25.4208-1.3312 15.9232 15.9232 0 0 1 1.3312 25.4208l-122.0608 135.552a15.8976 15.8976 0 0 1-25.4208 1.3312 15.8976 15.8976 0 0 1-1.3568-25.4208z"
        fill="#d4fbff" p-id="40629"></path>
    <path
        d="M199.9872 696.3968h40.8064a48 48 0 0 1 48 48v98.4064H151.9872v-98.4064a48 48 0 0 1 48-48z m387.6096-85.1968h43.1104a48 48 0 0 1 48 48v183.6032h-139.1872V659.2a48 48 0 0 1 48.0768-48z m-194.4064-99.6096h40.8064a48 48 0 0 1 48 48v283.2128h-136.8064V559.5904a48 48 0 0 1 48-48z m389.9904-122.3936h43.2128a48 48 0 0 1 48 48v405.6064h-139.1872V437.1968a48 48 0 0 1 47.9744-48z"
        fill="#ffd7e5" p-id="40630"></path>
    <path
        d="M70.4 871.6032h883.2a16.9728 16.9728 0 0 1 19.2 19.2 16.9728 16.9728 0 0 1-19.2 19.2H70.4a16.9728 16.9728 0 0 1-19.2-19.2 16.9728 16.9728 0 0 1 19.2-19.2z"
        fill="#fa759e" p-id="40631"></path>
    <path d="M158.0032 494.208a63.0016 63.0016 0 1 0 63.0016-63.0016 63.0016 63.0016 0 0 0-63.0016 63.0016z"
        fill="#6dc9f7" p-id="40632"></path>
    <path d="M351.2064 291.4048a63.0016 63.0016 0 1 0 63.0016-63.0016 63.0016 63.0016 0 0 0-63.0016 63.0016z"
        fill="#6dc9f7" p-id="40633"></path>
    <path d="M545.5872 382.592a63.0016 63.0016 0 1 0 63.0016-63.0016 63.0016 63.0016 0 0 0-63.0016 63.0016z"
        fill="#6dc9f7" p-id="40634"></path>
    <path d="M742.4 165.4016A63.0016 63.0016 0 1 0 805.4016 102.4 63.0016 63.0016 0 0 0 742.4 165.4016z" fill="#6dc9f7"
        p-id="40635"></path>
</svg>