<?xml version="1.0" standalone="no"?>
<!DOCTYPE svg PUBLIC "-//W3C//DTD SVG 1.1//EN" "http://www.w3.org/Graphics/SVG/1.1/DTD/svg11.dtd"><svg t="1680008310765"
    class="icon" viewBox="0 0 1024 1024" version="1.1" xmlns="http://www.w3.org/2000/svg" p-id="14638"
    xmlns:xlink="http://www.w3.org/1999/xlink" width="100" height="100">
    <path
        d="M512.136 298.614c-11.782 0-21.342-9.546-21.342-21.328v-42.688c0-11.78 9.562-21.326 21.342-21.326s21.344 9.546 21.344 21.326v42.688c0 11.78-9.562 21.328-21.344 21.328z"
        fill="#fa759e" p-id="14639"></path>
    <path
        d="M811.958 291.144l-32.438-27.734 26.844-31.39c-7.25-10.81-21.812-28.498-48.188-46.076-39.622-26.468-114.526-58.032-246.042-58.032-74.046 0-177.402 10.438-249.276 60.218-24.546 17-38.156 33.578-45 43.826l26.89 31.454-32.454 27.734-36.466-42.672a21.336 21.336 0 0 1-3.672-21.592c2.25-5.782 58.248-141.654 339.978-141.654 281.728 0 337.728 135.874 339.978 141.654a21.304 21.304 0 0 1-3.688 21.592l-36.466 42.672zM277.39 938.774c-3.718 0-7.484-0.968-10.906-3-10.124-6.032-13.436-19.124-7.406-29.25l85.78-144.06c6.032-10.124 19.124-13.438 29.25-7.438 10.124 6.032 13.454 19.124 7.422 29.282l-85.796 144.06a21.332 21.332 0 0 1-18.344 10.406zM747.118 938.774c-7.312 0-14.376-3.718-18.376-10.406l-85.808-144.06c-6-10.156-2.688-23.25 7.436-29.282s23.218-2.688 29.25 7.438l85.808 144.06c6 10.124 2.688 23.218-7.438 29.25a21.338 21.338 0 0 1-10.872 3z"
        fill="#fa759e" p-id="14640"></path>
    <path
        d="M682.838 213.272c-74.216 0-138.748 42.326-170.702 104.124-31.952-61.796-96.482-104.124-170.716-104.124-105.888 0-192.042 86.138-192.042 192.042s86.154 192.058 192.042 192.058c74.234 0 138.764-42.342 170.716-104.154 31.954 61.812 96.484 104.154 170.702 104.154 105.902 0 192.058-86.154 192.058-192.058s-86.156-192.042-192.058-192.042z"
        fill="#FFD600" p-id="14641"></path>
    <path
        d="M810.866 576.03c0 164.996-133.746 298.746-298.728 298.746-164.998 0-298.746-133.75-298.746-298.746s133.748-298.744 298.746-298.744c164.982 0 298.728 133.748 298.728 298.744z"
        fill="#ffd7e5" p-id="14642"></path>
    <path
        d="M512.136 896.118c-85.5 0-165.872-33.31-226.34-93.748-60.452-60.468-93.75-140.84-93.75-226.34 0-85.498 33.296-165.872 93.75-226.338 60.468-60.454 140.84-93.75 226.34-93.75 85.484 0 165.858 33.296 226.324 93.75 60.466 60.466 93.748 140.84 93.748 226.338 0 85.5-33.282 165.872-93.748 226.34-60.466 60.436-140.838 93.748-226.324 93.748z m0-597.504c-152.966 0-277.402 124.45-277.402 277.416s124.436 277.402 277.402 277.402c152.982 0 277.416-124.436 277.416-277.402S665.12 298.614 512.136 298.614z"
        fill="#fa759e" p-id="14643"></path>
    <path
        d="M512.136 597.374c-11.782 0-21.342-9.562-21.342-21.344v-170.714c0-11.782 9.562-21.344 21.342-21.344s21.344 9.562 21.344 21.344v170.714c0 11.78-9.562 21.344-21.344 21.344z"
        fill="#fa759e" p-id="14644"></path>
    <path
        d="M632.84 718.058a21.22 21.22 0 0 1-15.094-6.25l-120.704-120.686a21.36 21.36 0 0 1 0-30.186c8.328-8.344 21.844-8.344 30.172 0l120.716 120.716c8.312 8.31 8.312 21.842 0 30.154a21.198 21.198 0 0 1-15.09 6.252z"
        fill="#fa759e" p-id="14645"></path>
    <path
        d="M936.302 398.534c-9.656 6.75-12 20.062-5.25 29.716 87.748 125.312 57.186 298.622-68.124 386.37-9.624 6.75-12 20.062-5.25 29.718a21.348 21.348 0 0 0 29.75 5.218c69.998-49.032 116.748-122.404 131.624-206.59 14.842-84.216-4-169.154-53.032-239.184-6.782-9.656-20.062-11.998-29.718-5.248zM87.692 398.534c9.656 6.75 12 20.062 5.25 29.716C5.192 553.562 35.754 726.872 161.05 814.62c9.656 6.75 12.016 20.062 5.25 29.718s-20.062 12-29.718 5.218c-70.03-49.032-116.78-122.404-131.624-206.59-14.86-84.216 3.984-169.154 53.014-239.184 6.766-9.656 20.064-11.998 29.72-5.248z"
        fill="#FFD600" p-id="14646"></path>
</svg>