<svg xmlns="http://www.w3.org/2000/svg" xmlns:xlink="http://www.w3.org/1999/xlink" fill="none" version="1.1" width="150" height="150" viewBox="0 0 150 150"><g style="mix-blend-mode:passthrough"><g style="mix-blend-mode:passthrough"><g><path d="M75.018710078125,43.174439208984374C73.407880078125,43.174439208984374,72.100830078125,41.869239208984375,72.100830078125,40.25844920898437L72.100830078125,34.42212920898437C72.100830078125,32.81156920898437,73.408150078125,31.506439208984375,75.018710078125,31.506439208984375C76.629280078125,31.506439208984375,77.936870078125,32.81156920898437,77.936870078125,34.42212920898437L77.936870078125,40.25844920898437C77.936870078125,41.869039208984375,76.62955007812499,43.174439208984374,75.018710078125,43.174439208984374Z" fill="#FA759E" fill-opacity="1"/></g><g><path d="M116.0104009765625,42.1532L111.5755009765625,38.3614L115.2456009765625,34.0697C114.2544009765625,32.5918,112.2634009765625,30.1735,108.6573009765625,27.770200000000003C103.2402009765625,24.1515,92.9993009765625,19.83604,75.0184009765625,19.83604C64.8948009765625,19.83604,50.763900976562496,21.26313,40.9373009765625,28.0691C37.5813809765625,30.3933,35.7206109765625,32.6599,34.7849009765625,34.061L38.4613009765625,38.3614L34.0241909765625,42.1532L29.0385489765625,36.319C28.3403755365625,35.5025,28.1474959765625,34.3684,28.5365129765625,33.367000000000004C28.8441339765625,32.576499999999996,36.5001909765625,14,75.0184009765625,14C113.5363009765625,14,121.1926009765625,32.5767,121.5003009765625,33.367000000000004C121.8897009765625,34.368700000000004,121.6959009765625,35.5034,120.9960009765625,36.319L116.0104009765625,42.1532ZM42.9241009765625,130.697C42.4158009765625,130.697,41.9009009765625,130.565,41.4331009765625,130.287C40.0489009765625,129.462,39.5961009765625,127.672,40.4205009765625,126.288L52.1484009765625,106.5921C52.9731009765625,105.208,54.763000976562495,104.7549,56.1474009765625,105.5752C57.5316009765625,106.3999,57.986900976562495,108.1898,57.1622009765625,109.5786L45.432100976562495,129.275C44.905400976562504,130.15800000000002,43.952500976562504,130.69799999999998,42.9241009765625,130.697ZM107.1454009765625,130.697C106.1457009765625,130.697,105.1800009765625,130.189,104.6331009765625,129.275L92.9014009765625,109.5786C92.08110097656251,108.1901,92.5339009765625,106.3999,93.9180009765625,105.5752C95.3022009765625,104.7505,97.0924009765625,105.2077,97.9171009765625,106.5921L109.6488009765625,126.288C110.4691009765625,127.672,110.0163009765625,129.462,108.6319009765625,130.287C108.1821009765625,130.555,107.6687009765625,130.696,107.1454009765625,130.697Z" fill="#FA759E" fill-opacity="1"/></g><g><path d="M98.3570412109375,31.506439208984375C88.21014121093751,31.506439208984375,79.3873412109375,37.293259208984374,75.0186412109375,45.742339208984376C70.6501412109375,37.293529208984374,61.8275412109375,31.506439208984375,51.6782412109375,31.506439208984375C37.201241210937496,31.506439208984375,25.4222412109375,43.28323920898438,25.4222412109375,57.762439208984375C25.4222412109375,72.24163920898437,37.201241210937496,84.02063920898438,51.6782412109375,84.02063920898438C61.8275412109375,84.02063920898438,70.6501412109375,78.23163920898438,75.0186412109375,69.78073920898437C79.3873412109375,78.23163920898438,88.2099412109375,84.02063920898438,98.3570412109375,84.02063920898438C112.8359412109375,84.02063920898438,124.6152412109375,72.24163920898437,124.6152412109375,57.762439208984375C124.6152412109375,43.28323920898438,112.8359412109375,31.506433868354375,98.3570412109375,31.506439208984375Z" fill="#FFD600" fill-opacity="1"/></g><g><path d="M115.86093330078126,81.10298388671875Q115.86093330078126,82.10568388671875,115.81173330078126,83.10708388671875Q115.76253330078124,84.10858388671875,115.66423330078125,85.10638388671876Q115.56593330078125,86.10428388671875,115.41883330078124,87.09608388671876Q115.27173330078125,88.08788388671874,115.07613330078125,89.07128388671876Q114.88053330078125,90.05468388671875,114.63683330078125,91.02738388671875Q114.39323330078125,91.99998388671875,114.10223330078125,92.95948388671874Q113.81113330078125,93.91898388671875,113.47333330078125,94.86308388671875Q113.13553330078125,95.80708388671874,112.75193330078125,96.73348388671874Q112.36813330078125,97.65978388671874,111.93953330078125,98.56618388671875Q111.51083330078124,99.47258388671875,111.03813330078125,100.35688388671875Q110.56553330078125,101.24118388671874,110.05003330078125,102.10118388671876Q109.53463330078125,102.96128388671875,108.97753330078125,103.79488388671875Q108.42053330078124,104.62858388671874,107.82323330078125,105.43398388671875Q107.22593330078125,106.23938388671876,106.58983330078125,107.01438388671875Q105.95383330078126,107.78948388671876,105.28043330078125,108.53238388671875Q104.60713330078126,109.27538388671876,103.89813330078125,109.98438388671875Q103.18913330078125,110.69338388671875,102.44623330078124,111.36668388671875Q101.70333330078125,112.04008388671875,100.92833330078125,112.67618388671875Q100.15323330078125,113.31228388671875,99.34793330078125,113.90958388671875Q98.54253330078124,114.50688388671875,97.70893330078124,115.06388388671876Q96.87523330078125,115.62098388671875,96.01523330078125,116.13648388671875Q95.15523330078125,116.65188388671875,94.27093330078125,117.12458388671875Q93.38673330078126,117.59718388671875,92.48033330078124,118.02588388671874Q91.57393330078125,118.45458388671875,90.64763330078125,118.83828388671876Q89.72123330078125,119.22208388671875,88.77723330078125,119.55988388671875Q87.83323330078125,119.89758388671875,86.87373330078125,120.18868388671875Q85.91423330078125,120.47978388671875,84.94163330078125,120.72338388671875Q83.96903330078125,120.96698388671875,82.98563330078125,121.16258388671875Q82.00223330078126,121.35828388671875,81.01043330078124,121.50538388671875Q80.01873330078125,121.65248388671876,79.02083330078125,121.75078388671875Q78.02303330078125,121.84908388671874,77.02163330078125,121.89828388671874Q76.02013330078125,121.94748388671874,75.01753330078125,121.94748388671874Q74.01483330078125,121.94748388671874,73.01343330078126,121.89828388671874Q72.01203330078124,121.84908388671874,71.01413330078125,121.75078388671875Q70.01633330078124,121.65248388671876,69.02453330078126,121.50538388671875Q68.03273330078125,121.35828388671875,67.04933330078126,121.16258388671875Q66.06603330078124,120.96698388671875,65.09343330078124,120.72338388671875Q64.12083330078124,120.47978388671875,63.16133330078125,120.18868388671875Q62.201833300781246,119.89758388671875,61.25783330078125,119.55988388671875Q60.31373330078125,119.22208388671875,59.387433300781254,118.83828388671876Q58.46113330078125,118.45458388671875,57.55473330078125,118.02588388671874Q56.648333300781246,117.59718388671875,55.76403330078125,117.12458388671875Q54.87983330078125,116.65188388671875,54.01983330078125,116.13648388671875Q53.15983330078125,115.62098388671875,52.32613330078125,115.06388388671876Q51.49243330078125,114.50688388671875,50.687133300781255,113.90958388671875Q49.88183330078125,113.31228388671875,49.10673330078125,112.67618388671875Q48.33173330078125,112.04008388671875,47.58873330078125,111.36668388671875Q46.84583330078125,110.69338388671875,46.13693330078125,109.98438388671875Q45.42793330078125,109.27538388671876,44.75453330078125,108.53238388671875Q44.08122330078125,107.78948388671876,43.44515330078125,107.01438388671875Q42.80908330078125,106.23938388671876,42.21180330078125,105.43398388671875Q41.61452330078125,104.62858388671874,41.05748330078125,103.79488388671875Q40.50044330078125,102.96128388671875,39.98497330078125,102.10118388671876Q39.46951330078125,101.24118388671874,38.996873300781246,100.35688388671875Q38.52422330078125,99.47258388671875,38.09553330078125,98.56618388671875Q37.66684330078125,97.65978388671874,37.28315330078125,96.73348388671874Q36.899453300781246,95.80708388671874,36.56167330078125,94.86308388671875Q36.22389330078125,93.91898388671875,35.93283330078125,92.95948388671874Q35.64178330078125,91.99998388671875,35.39816330078125,91.02738388671875Q35.15453430078125,90.05468388671875,34.95892730078125,89.07128388671876Q34.76332030078125,88.08788388671874,34.61620130078125,87.09608388671876Q34.46908230078125,86.10428388671875,34.37080530078125,85.10638388671876Q34.27252860078125,84.10858388671875,34.22333090078125,83.10708388671875Q34.17413330078125,82.10568388671875,34.17413330078125,81.10298388671875Q34.17413330078125,80.10028388671876,34.22333090078125,79.09878388671875Q34.27252860078125,78.09738388671875,34.37080530078125,77.09948388671876Q34.46908230078125,76.10168388671875,34.61620130078125,75.10978388671876Q34.76332030078125,74.11798388671875,34.95892730078125,73.13458388671876Q35.15453430078125,72.15118388671875,35.39816330078125,71.17858388671876Q35.64178330078125,70.20598388671876,35.93283330078125,69.24648388671875Q36.22389330078125,68.28698388671876,36.56167330078125,67.34288388671875Q36.899453300781246,66.39878388671875,37.28315330078125,65.47248388671875Q37.66684330078125,64.54608388671875,38.09553330078125,63.63968388671875Q38.52422330078125,62.73328388671875,38.996873300781246,61.84898388671875Q39.46951330078125,60.964683886718745,39.98497330078125,60.104683886718746Q40.50044330078125,59.24468388671875,41.05748330078125,58.41098388671875Q41.61452330078125,57.577283886718746,42.21180330078125,56.77198388671875Q42.80908330078125,55.96658388671875,43.44515330078125,55.19148388671875Q44.08122330078125,54.41638388671875,44.75453330078125,53.67348388671875Q45.42793330078125,52.93058388671875,46.13693330078125,52.22158388671875Q46.84583330078125,51.51258388671875,47.58873330078125,50.83918388671875Q48.33173330078125,50.16584388671875,49.10673330078125,49.52975388671875Q49.88183330078125,48.89366388671875,50.687133300781255,48.296373886718754Q51.49243330078125,47.69907388671875,52.32613330078125,47.142023886718746Q53.15983330078125,46.584963886718754,54.01983330078125,46.06948388671875Q54.87983330078125,45.554003886718746,55.76403330078125,45.08134388671875Q56.648333300781246,44.60869388671875,57.55473330078125,44.17999388671875Q58.46113330078125,43.75129388671875,59.387433300781254,43.36758388671875Q60.31373330078125,42.98387388671875,61.25783330078125,42.64608388671875Q62.201833300781246,42.30829388671875,63.16133330078125,42.01723388671875Q64.12073330078125,41.72617388671875,65.09333330078125,41.48254388671875Q66.06593330078125,41.23891088671875,67.04933330078126,41.04329888671875Q68.03273330078125,40.84768688671875,69.02453330078126,40.70056388671875Q70.01633330078124,40.55344088671875,71.01413330078125,40.45516088671875Q72.01203330078124,40.35688178671875,73.01343330078126,40.30768288671875Q74.01483330078125,40.25848388671875,75.01753330078125,40.25848388671875Q76.02013330078125,40.25848388671875,77.02163330078125,40.30768288671875Q78.02303330078125,40.35688178671875,79.02083330078125,40.45516088671875Q80.01873330078125,40.55344088671875,81.01043330078124,40.70056388671875Q82.00223330078126,40.84768688671875,82.98563330078125,41.04329888671875Q83.96903330078125,41.23891088671875,84.94163330078125,41.48254388671875Q85.91423330078125,41.72617388671875,86.87373330078125,42.01723388671875Q87.83323330078125,42.30829388671875,88.77723330078125,42.64608388671875Q89.72123330078125,42.98387388671875,90.64763330078125,43.36758388671875Q91.57393330078125,43.75129388671875,92.48033330078124,44.17999388671875Q93.38673330078126,44.60869388671875,94.27093330078125,45.08134388671875Q95.15523330078125,45.554003886718746,96.01523330078125,46.06948388671875Q96.87523330078125,46.584963886718754,97.70893330078124,47.142023886718746Q98.54253330078124,47.69907388671875,99.34793330078125,48.296373886718754Q100.15323330078125,48.89366388671875,100.92833330078125,49.52975388671875Q101.70333330078125,50.16584388671875,102.44623330078124,50.83918388671875Q103.18913330078125,51.51258388671875,103.89813330078125,52.22158388671875Q104.60713330078126,52.93058388671875,105.28043330078125,53.67348388671875Q105.95383330078126,54.41638388671875,106.58983330078125,55.19148388671875Q107.22593330078125,55.96658388671875,107.82323330078125,56.77198388671875Q108.42053330078124,57.577283886718746,108.97753330078125,58.41098388671875Q109.53463330078125,59.24468388671875,110.05003330078125,60.104683886718746Q110.56553330078125,60.964683886718745,111.03813330078125,61.84898388671875Q111.51083330078124,62.73328388671875,111.93953330078125,63.63968388671875Q112.36813330078125,64.54608388671875,112.75193330078125,65.47248388671875Q113.13553330078125,66.39878388671875,113.47333330078125,67.34288388671875Q113.81113330078125,68.28698388671876,114.10223330078125,69.24648388671875Q114.39323330078125,70.20598388671876,114.63683330078125,71.17858388671876Q114.88053330078125,72.15118388671875,115.07613330078125,73.13458388671876Q115.27173330078125,74.11798388671875,115.41883330078124,75.10978388671876Q115.56593330078125,76.10168388671875,115.66423330078125,77.09948388671876Q115.76253330078124,78.09738388671875,115.81173330078126,79.09878388671875Q115.86093330078126,80.10028388671876,115.86093330078126,81.10298388671875Z" fill="#FFD7E5" fill-opacity="1"/></g><g><path d="M75.01859833984375,124.86533203125C63.32899833984375,124.86533203125,52.34049833984375,120.31113203125,44.07329833984375,112.04813203125C35.80830833984375,103.78093203125,31.25579833984375,92.79243203125,31.25579833984375,81.10283203125C31.25579833984375,69.41353203125,35.80803833984375,58.42473203125,44.07329833984375,50.15783203125C52.34049833984375,41.89257203125,63.32899833984375,37.34033203125,75.01859833984375,37.34033203125C86.70599833984375,37.34033203125,97.69469833984375,41.89257203125,105.96159833984375,50.15783203125C114.22859833984376,58.42473203125,118.77889833984375,69.41353203125,118.77889833984375,81.10283203125C118.77889833984375,92.79243203125,114.22859833984376,103.78093203125,105.96159833984375,112.04813203125C97.69469833984375,120.31093203125,86.70619833984375,124.86533203125,75.01859833984375,124.86533203125ZM75.01859833984375,43.17445203125C54.104998339843746,43.17445203125,37.09210833984375,60.189332031250004,37.09210833984375,81.10283203125C37.09210833984375,102.01633203125,54.104998339843746,119.02933203125,75.01859833984375,119.02933203125C95.93429833984375,119.02933203125,112.94699833984374,102.01633203125,112.94699833984374,81.10283203125C112.94699833984374,60.189332031250004,95.93459833984375,43.17446203125,75.01859833984375,43.17445203125Z" fill="#FA759E" fill-opacity="1"/></g><g><path d="M75.018710078125,84.0210044921875C73.407880078125,84.0210044921875,72.100830078125,82.7136044921875,72.100830078125,81.1028044921875L72.100830078125,57.7627544921875C72.100830078125,56.1519244921875,73.408150078125,54.8446044921875,75.018710078125,54.8446044921875C76.629280078125,54.8446044921875,77.936870078125,56.1519244921875,77.936870078125,57.7627544921875L77.936870078125,81.1028044921875C77.936870078125,82.7134044921875,76.62955007812499,84.0210044921875,75.018710078125,84.0210044921875Z" fill="#FA759E" fill-opacity="1"/></g><g><path d="M91.52127421875,100.52086323242187C90.74697421875,100.52286323242188,90.00387421875,100.21526323242188,89.45767421875,99.66636323242187L72.95495121875,83.16619323242188C71.81645021875,82.02607323242188,71.81645021875,80.17927323242188,72.95495121875,79.03915423242188C74.09355421875,77.89836223242187,75.94146421875,77.89836223242187,77.08007421875,79.03915423242188L93.58437421875,95.54346323242187C94.72077421875,96.67966323242187,94.72077421875,98.52976323242187,93.58437421875,99.66616323242188C93.03847421875,100.21526323242188,92.29557421875,100.52306323242188,91.52127421875,100.52086323242187Z" fill="#FA759E" fill-opacity="1"/></g><g><path d="M133.011,56.83552619726562C131.69,57.75839219726562,131.37,59.578402197265625,132.293,60.89830219726562C144.29,78.03100219726562,140.111,101.72600219726561,122.979,113.72290219726563C121.663,114.64580219726562,121.338,116.46580219726562,122.261,117.78590219726563C123.187,119.10680219726562,125.009,119.42630219726563,126.329,118.49930219726562C135.899,111.79570219726563,142.29,101.76420219726563,144.324,90.25430219726562C146.353,78.74030219726562,143.777,67.12750219726563,137.074,57.55303219726562C136.146,56.23285749726563,134.331,55.91266019726562,133.011,56.83552619726562ZM16.988500000000002,56.83552619726562C18.3086,57.75839219726562,18.6291,59.578402197265625,17.7063,60.89830219726562C5.709053,78.03100219726562,9.8875,101.72600219726561,27.018,113.72290219726563C28.3382,114.64580219726562,28.6608,116.46580219726562,27.7358,117.78590219726563C26.8107,119.10610219726563,24.9929,119.42660219726562,23.6727,118.49930219726562C14.09821,111.79570219726563,7.70654,101.76420219726563,5.67706,90.25430219726562C3.6454,78.74030219726562,6.22175,67.12750219726563,12.92515,57.55303219726562C13.85019,56.23285749726563,15.6683,55.91266019726562,16.988500000000002,56.83552619726562Z" fill="#FFD600" fill-opacity="1"/></g></g></g></svg>