<svg xmlns="http://www.w3.org/2000/svg" xmlns:xlink="http://www.w3.org/1999/xlink" fill="none" version="1.1" width="150" height="150" viewBox="0 0 150 150"><defs><clipPath id="master_svg0_1_014"><rect x="0" y="0" width="150" height="150" rx="0"/></clipPath></defs><g clip-path="url(#master_svg0_1_014)"><g style="mix-blend-mode:passthrough"><g><path d="M110.3694453125,50.7889404296875C99.8113453125,50.7889404296875,90.30224531249999,55.2582904296875,83.61564531249999,62.404840429687496C80.0358453125,58.2807204296875,74.75224531250001,55.6723504296875,68.8626453125,55.6723504296875C58.072045312499995,55.6723504296875,49.3261453125,64.41844042968751,49.3261453125,75.2068404296875C49.3261453125,75.37054042968751,49.330645312499996,75.5319404296875,49.3326453125,75.69364042968749C38.1860553125,77.9548404296875,29.7939453125,87.8094404296875,29.7939453125,99.6241404296875C29.7939453125,113.1069404296875,40.7261453125,124.0417404296875,54.2112453125,124.0417404296875L110.3694453125,124.0417404296875C130.60094531250002,124.0417404296875,146.99994531250002,107.6466404296875,146.99994531250002,87.4157404296875C146.99994531250002,67.1860404296875,130.60094531250002,50.7889348982175,110.3694453125,50.7889404296875Z" fill="#D4FBFF" fill-opacity="1"/></g><g><path d="M133.0742517578125,58.67236328125C138.00855175781248,64.91377328125,140.9555517578125,72.79926328125,140.9555517578125,81.37516328125C140.9555517578125,101.60176328125,124.5564517578125,118.00086328124999,104.3291517578125,118.00086328124999L48.1689517578125,118.00086328124999C42.9698117578125,118.00086328124999,38.1506917578125,116.37236328125,34.1905517578125,113.60226328125C38.6043917578125,119.91246328125,45.9259517578125,124.04116328125,54.2113517578125,124.04116328125L110.3695517578125,124.04116328125C130.6006517578125,124.04116328125,146.9995517578125,107.64606328125001,146.9995517578125,87.41516328125C146.9995517578125,75.76186328125,141.55755175781252,65.38049328125,133.0742517578125,58.67236328125Z" fill="#7CD1FC" fill-opacity="1"/></g><g><path d="M82.5801,27C72.0197,27,62.5083,31.46709,55.822,38.615899999999996C52.2422,34.4915,46.9589,31.883409999999998,41.0667,31.883409999999998C30.2783,31.883409999999998,21.5322,40.6295,21.5322,51.4176C21.5322,51.579,21.5345,51.7427,21.5387,51.9045C10.39013,54.1656,2,64.0202,2,75.8352C2,89.3183,12.9322,100.2526,26.4176,100.2526L82.5801,100.2526C102.807,100.2526,119.202,83.8535,119.202,63.6266C119.202,43.397099999999995,102.807,27.0000082972,82.5801,27Z" fill="#FFD7E5" fill-opacity="1"/></g><g><path d="M105.28073369140625,34.8831787109375C110.21503369140625,41.1225987109375,113.16603369140626,49.0100787109375,113.16603369140626,57.583678710937505C113.16603369140626,77.8128787109375,96.76743369140625,94.2119787109375,76.53593369140626,94.2119787109375L20.37543369140625,94.2119787109375C15.17629369140625,94.2119787109375,10.35745369140625,92.5834787109375,6.39703369140625,89.8136787109375C10.81116369140625,96.1232787109375,18.13243369140625,100.2519787109375,26.41803369140625,100.2519787109375L82.58023369140625,100.2519787109375C102.80713369140625,100.2519787109375,119.20203369140626,83.8528787109375,119.20203369140626,63.6259787109375C119.20203369140626,51.9726787109375,113.75903369140624,41.591598710937504,105.28073369140625,34.8831787109375Z" fill="#FF8EB0" fill-opacity="1"/></g></g></g></svg>