<?xml version="1.0" standalone="no"?><!DOCTYPE svg PUBLIC "-//W3C//DTD SVG 1.1//EN" "http://www.w3.org/Graphics/SVG/1.1/DTD/svg11.dtd"><svg t="1680677114271" class="icon" viewBox="0 0 1024 1024" version="1.1" xmlns="http://www.w3.org/2000/svg" p-id="3664" xmlns:xlink="http://www.w3.org/1999/xlink" width="100" height="100"><path d="M0 0h1024v1024H0z" fill="#FFFFFF" p-id="3665"></path><path d="M810.666667 160H213.333333A117.333333 117.333333 0 0 0 96 277.333333v554.666667a117.333333 117.333333 0 0 0 117.333333 117.333333h597.333334a117.333333 117.333333 0 0 0 117.333333-117.333333V277.333333A117.333333 117.333333 0 0 0 810.666667 160z m-597.333334 64h597.333334a53.333333 53.333333 0 0 1 53.333333 53.333333v554.666667a53.333333 53.333333 0 0 1-53.333333 53.333333H213.333333A53.333333 53.333333 0 0 1 160 832V277.333333a53.333333 53.333333 0 0 1 53.333333-53.333333z" fill="#6dc9f7" p-id="3666"></path><path d="M874.666667 362.666667v64H149.333333v-64zM704 74.666667a32 32 0 0 1 31.850667 28.928L736 106.666667v149.333333a32 32 0 0 1-63.850667 3.072L672 256V106.666667A32 32 0 0 1 704 74.666667zM341.333333 74.666667a32 32 0 0 1 31.850667 28.928L373.333333 106.666667v149.333333a32 32 0 0 1-63.850666 3.072L309.333333 256V106.666667A32 32 0 0 1 341.333333 74.666667zM341.333333 544a32 32 0 0 1 3.072 63.850667L341.333333 608h-42.666666a32 32 0 0 1-3.072-63.850667L298.666667 544h42.666666z m213.333334 0a32 32 0 0 1 3.072 63.850667L554.666667 608h-42.666667a32 32 0 0 1-3.072-63.850667L512 544h42.666667z m192 0a32 32 0 0 1 3.072 63.850667L746.666667 608h-42.666667a32 32 0 0 1-3.072-63.850667L704 544h42.666667zM341.333333 714.666667a32 32 0 0 1 3.072 63.850666L341.333333 778.666667h-42.666666a32 32 0 0 1-3.072-63.850667L298.666667 714.666667h42.666666z m213.333334 0a32 32 0 0 1 3.072 63.850666L554.666667 778.666667h-42.666667a32 32 0 0 1-3.072-63.850667L512 714.666667h42.666667z m192 0a32 32 0 0 1 3.072 63.850666L746.666667 778.666667h-42.666667a32 32 0 0 1-3.072-63.850667L704 714.666667h42.666667z" fill="#6dc9f7" p-id="3667"></path></svg>