<?xml version="1.0" standalone="no"?><!DOCTYPE svg PUBLIC "-//W3C//DTD SVG 1.1//EN" "http://www.w3.org/Graphics/SVG/1.1/DTD/svg11.dtd"><svg t="1680611459697" class="icon" viewBox="0 0 1024 1024" version="1.1" xmlns="http://www.w3.org/2000/svg" p-id="6293" xmlns:xlink="http://www.w3.org/1999/xlink" width="100" height="100"><path d="M828.17 796.33H218.98c-7.54 0-15.08 0.02-22.62 0-3.38-0.01-6.74-0.22-10.1-0.66 2.22 0.3 4.43 0.6 6.65 0.89a73.034 73.034 0 0 1-16.93-4.59l5.97 2.52a73.206 73.206 0 0 1-15.71-9.09c1.69 1.3 3.37 2.61 5.06 3.91a73.61 73.61 0 0 1-12.75-12.75c1.3 1.69 2.61 3.37 3.91 5.06a73.206 73.206 0 0 1-9.09-15.71 76591182022511300 76591182022511300 0 0 0-2.07-10.96c0.3 2.22 0.6 4.43 0.89 6.65-0.89-6.79-0.66-13.67-0.66-20.51v-34.17-115.8-141.28-121.41c0-18.73-0.1-37.46 0-56.18 0.02-3.32 0.23-6.61 0.66-9.9-0.3 2.22-0.6 4.43-0.89 6.65 0.85-5.83 2.38-11.47 4.59-16.93l-2.52 5.97a73.206 73.206 0 0 1 9.09-15.71c-1.3 1.69-2.61 3.37-3.91 5.06a73.61 73.61 0 0 1 12.75-12.75c-1.69 1.3-3.37 2.61-5.06 3.91a73.206 73.206 0 0 1 15.71-9.09l-5.97 2.52c5.46-2.21 11.1-3.74 16.93-4.59-2.22 0.3-4.43 0.6-6.65 0.89 6.51-0.85 13.08-0.66 19.63-0.66h103.87c7.8 0 15.72-0.34 23.47 0.64-2.22-0.3-4.43-0.6-6.65-0.89a74.11 74.11 0 0 1 18.07 5.04l-5.97-2.52c11.96 5.31 23.72 11.24 35.57 16.79 19.87 9.3 39.74 18.59 59.61 27.89 11.76 5.5 24.12 10.41 35.53 16.62 1.95 1.06 3.71 2.56 5.63 3.71 5.55 3.32 11.62 5.89 17.69 8.08 9.38 3.39 19.69 4.84 29.64 4.91 1.87 0.01 3.73 0 5.6 0h226.12c24.56 0 49.11-0.12 73.67 0 3.35 0.02 6.68 0.22 10.01 0.66-2.22-0.3-4.43-0.6-6.65-0.89 5.83 0.85 11.47 2.38 16.93 4.59l-5.97-2.52a73.206 73.206 0 0 1 15.71 9.09c-1.69-1.3-3.37-2.61-5.06-3.91a73.61 73.61 0 0 1 12.75 12.75c-1.3-1.69-2.61-3.37-3.91-5.06a73.206 73.206 0 0 1 9.09 15.71l-2.52-5.97c2.21 5.46 3.74 11.1 4.59 16.93-0.3-2.22-0.6-4.43-0.89-6.65 0.8 6.14 0.66 12.28 0.66 18.45v344.35c0 15.46 0.08 30.92 0 46.38-0.02 3.28-0.23 6.52-0.66 9.77 0.3-2.22 0.6-4.43 0.89-6.65a73.034 73.034 0 0 1-4.59 16.93l2.52-5.97a73.206 73.206 0 0 1-9.09 15.71c1.3-1.69 2.61-3.37 3.91-5.06a73.61 73.61 0 0 1-12.75 12.75c1.69-1.3 3.37-2.61 5.06-3.91a73.206 73.206 0 0 1-15.71 9.09l5.97-2.52a73.034 73.034 0 0 1-16.93 4.59c2.22-0.3 4.43-0.6 6.65-0.89-3.19 0.45-6.37 0.66-9.58 0.69-13.07 0.1-25.61 11.43-25 25 0.6 13.46 10.99 25.11 25 25 34.32-0.26 67.91-19.55 83.52-50.55 7.56-15.02 10.78-30.89 10.78-47.6v-62.71-109.49-117.57-85.75-18.91c-0.02-23.83-8.28-45.58-23.55-63.75-17.41-20.71-44.67-32-71.44-32.06-6.71-0.01-13.43 0-20.14 0H524.73c-3.85 0-7.68-0.13-11.52-0.62 2.22 0.3 4.43 0.6 6.65 0.89a72.093 72.093 0 0 1-17.46-4.83l5.97 2.52c-5.79-2.54-10.68-6.42-16.35-9.07-4.35-2.04-8.71-4.07-13.06-6.11l-44.82-20.97c-15.27-7.15-30.54-14.29-45.81-21.44-10.46-4.89-20.91-10.31-31.62-14.6-15.04-6.03-30.85-6.06-46.7-6.06h-98.32c-13.23 0-26.24-0.3-39.26 2.93-31.24 7.76-55.8 31.97-66.21 62.04-3.68 10.62-4.69 21.96-4.69 33.14v436.23c0 13.08-0.03 26.16 0 39.24 0.05 23.53 8.5 45.12 23.55 63.02 17.25 20.53 44.32 31.9 70.87 32.06 9.03 0.05 18.06 0 27.09 0h605.1c13.08 0 25.6-11.5 25-25-0.58-13.53-10.96-24.98-24.97-24.98z" fill="#fa759e" p-id="6294"></path><path d="M482.31 480.01l0.09 5.61c0.08 5.09 0.17 10.18 0.25 15.28 0.12 7.53 0.25 15.06 0.37 22.59l0.45 27.44c0.16 10.06 0.33 20.12 0.49 30.18 0.17 10.16 0.33 20.31 0.5 30.47 0.16 9.47 0.31 18.94 0.47 28.41l0.39 23.91c0.09 5.76 0.19 11.52 0.28 17.28 0.04 2.73 0.08 5.46 0.13 8.19 0 0.12 0 0.23 0.01 0.35-0.16 4.13 0.71 7.98 2.58 11.56 1.21 3.72 3.28 6.94 6.2 9.65 2.72 2.93 5.94 4.99 9.65 6.2 3.58 1.88 7.43 2.74 11.56 2.58 2.66-0.36 5.32-0.71 7.98-1.07 5.08-1.43 9.49-4 13.24-7.72l4.69-6.07c2.71-4.68 4.08-9.73 4.1-15.14l-0.09-5.61c-0.08-5.09-0.17-10.18-0.25-15.28-0.12-7.53-0.25-15.06-0.37-22.59l-0.45-27.44c-0.16-10.06-0.33-20.12-0.49-30.18-0.17-10.16-0.33-20.31-0.5-30.47-0.16-9.47-0.31-18.94-0.47-28.41l-0.39-23.91c-0.09-5.76-0.19-11.52-0.28-17.28-0.04-2.73-0.08-5.46-0.13-8.19 0-0.12 0-0.23-0.01-0.35 0.16-4.13-0.71-7.98-2.58-11.56-1.21-3.72-3.28-6.94-6.2-9.65-2.72-2.93-5.94-4.99-9.65-6.2-3.58-1.88-7.43-2.74-11.56-2.58-2.66 0.36-5.32 0.71-7.98 1.07-5.08 1.43-9.49 4-13.24 7.72l-4.69 6.07c-2.72 4.68-4.08 9.73-4.1 15.14z" fill="#fa759e" p-id="6295"></path><path d="M410.89 569.16c4.09-3.94 8.18-7.87 12.28-11.81 9.76-9.39 19.52-18.77 29.27-28.16l35.36-34.01 30.54-29.37c4.93-4.74 9.89-9.46 14.8-14.23 0.07-0.06 0.13-0.13 0.2-0.19h-42.43c1.09 1.07 2.18 2.14 3.28 3.21 2.95 2.9 5.9 5.79 8.86 8.69 4.39 4.3 8.78 8.61 13.16 12.91 5.36 5.25 10.71 10.51 16.07 15.76l17.51 17.18c5.92 5.81 11.84 11.62 17.77 17.43 5.52 5.42 11.04 10.83 16.57 16.25l13.94 13.67c3.36 3.3 6.72 6.59 10.08 9.89 1.59 1.56 3.18 3.13 4.78 4.68 0.07 0.07 0.14 0.13 0.21 0.2 2.72 2.93 5.94 4.99 9.65 6.2 3.58 1.88 7.43 2.74 11.56 2.58 4.13 0.16 7.98-0.71 11.56-2.58 3.72-1.21 6.94-3.28 9.65-6.2l4.69-6.07c2.71-4.68 4.08-9.73 4.1-15.14-0.36-2.66-0.71-5.32-1.07-7.98-1.43-5.08-4-9.49-7.72-13.24-1.09-1.07-2.18-2.14-3.28-3.21-2.95-2.9-5.9-5.79-8.86-8.69-4.39-4.3-8.78-8.61-13.16-12.91-5.36-5.25-10.71-10.51-16.07-15.76l-17.51-17.18c-5.92-5.81-11.84-11.62-17.77-17.43-5.52-5.42-11.04-10.83-16.57-16.25l-13.94-13.67c-3.36-3.3-6.72-6.59-10.08-9.89-1.59-1.56-3.18-3.13-4.78-4.68-0.07-0.07-0.14-0.13-0.21-0.2-2.72-2.93-5.94-4.99-9.65-6.2-3.58-1.88-7.43-2.74-11.56-2.58-2.66 0.36-5.32 0.71-7.98 1.07-5.08 1.43-9.49 4-13.24 7.72-4.09 3.94-8.18 7.87-12.28 11.81-9.76 9.39-19.52 18.77-29.27 28.16l-35.36 34.01-30.54 29.37c-4.93 4.74-9.9 9.46-14.8 14.23-0.07 0.06-0.13 0.13-0.2 0.19-2.93 2.72-4.99 5.94-6.2 9.65-1.88 3.58-2.74 7.43-2.58 11.56-0.16 4.13 0.71 7.98 2.58 11.56 1.21 3.72 3.28 6.94 6.2 9.65l6.07 4.69c4.68 2.71 9.73 4.08 15.14 4.1 2.66-0.36 5.32-0.71 7.98-1.07 5.1-1.43 9.51-4 13.25-7.72z" fill="#fa759e" p-id="6296"></path></svg>