<?xml version="1.0" standalone="no"?><!DOCTYPE svg PUBLIC "-//W3C//DTD SVG 1.1//EN" "http://www.w3.org/Graphics/SVG/1.1/DTD/svg11.dtd"><svg t="1680674141017" class="icon" viewBox="0 0 1024 1024" version="1.1" xmlns="http://www.w3.org/2000/svg" p-id="9779" xmlns:xlink="http://www.w3.org/1999/xlink" width="100" height="100"><path d="M159.999 512c0-0.023 0-0.047 0-0.074 0-17.649 7.167-33.625 18.749-45.175l416.001-416.001c11.582-11.582 27.582-18.745 45.255-18.745 35.345 0 64 28.654 64 64 0 17.673-7.163 33.672-18.745 45.255l-370.75 370.74 370.74 370.75c11.582 11.582 18.745 27.582 18.745 45.255 0 35.345-28.654 64-64 64-17.673 0-33.672-7.163-45.255-18.745l-416-416c-11.577-11.551-18.74-27.522-18.74-45.167 0-0.033 0-0.066 0-0.098z" p-id="9780" fill="#ffffff"></path></svg>