<svg xmlns="http://www.w3.org/2000/svg" xmlns:xlink="http://www.w3.org/1999/xlink" fill="none" version="1.1" width="150" height="150.00001525878906" viewBox="0 0 150 150.00001525878906"><g style="mix-blend-mode:passthrough"><g style="mix-blend-mode:passthrough"><g><path d="M65.7490234375,31.8675C65.7490234375,21.99919,73.7482134375,14,83.6165234375,14C93.4848234375,14,101.4840234375,21.99919,101.4840234375,31.8675C101.4840234375,38.607600000000005,97.7490234375,44.472300000000004,92.2371234375,47.5147C85.2817234375,44.4416,77.3990234375,42.5352,69.0001634375,42.1242C66.9578834375,39.2194,65.7490234375,35.6883,65.7490234375,31.8675Z" fill="#FFD600" fill-opacity="1"/></g><g><path d="M77.5414234375,24.259941959433593L80.5142134375,24.259941959433593L82.1519134375,27.295843669433594C82.9723834375,28.812183669433594,83.4692034375,29.778293669433594,83.6439734375,30.192573669433592C83.8753934375,29.584103669433595,84.1893334375,28.931933669433594,84.5842034375,28.236073669433594L86.8190234375,24.258323669433594L89.6769234375,24.258323669433594L86.2785434375,30.192573669433592L90.9165234375,30.192573669433592L90.9165234375,32.221903669433594L84.8884334375,32.221903669433594L84.8884334375,34.82892366943359L90.9165234375,34.82892366943359L90.9165234375,36.843723669433594L84.8884334375,36.843723669433594L84.8884334375,41.74062366943359L82.2813734375,41.74062366943359L82.2813734375,36.843723669433594L76.3115234375,36.843723669433594L76.3115234375,34.82892366943359L82.2813734375,34.82892366943359L82.2813734375,32.221903669433594L76.3115234375,32.221903669433594L76.3115234375,30.192573669433592L80.9187834375,30.192573669433592L77.5414234375,24.259941959433593Z" fill="#FA759E" fill-opacity="1"/></g><g><path d="M131.38023603515626,101.07024187011719C127.31996603515626,100.68504187011719,124.40381603515625,97.50994187011719,124.28891603515625,93.35104187011719C124.25169603515624,92.09034187011719,124.56078603515626,90.46721187011718,125.84084603515625,88.8246518701172C124.28567603515626,88.55116187011718,122.94735603515625,88.58514187011718,122.30651603515625,88.92660187011718C120.68984603515625,89.78753187011719,118.67993603515625,89.18229187011718,117.81415503515625,87.56238187011719C116.94999103515624,85.94572187011718,117.56170303515626,83.93581187011719,119.17836603515624,83.07164187011719C122.80818603515625,81.13617487011719,128.57733603515624,82.07154377011719,132.96613603515624,84.27888187011719C137.68993603515625,82.6039598701172,143.54973603515626,81.95017237011719,146.27013603515624,83.51991187011718C147.85763603515625,84.43748187011718,148.49363603515624,86.51050187011718,147.57763603515625,88.09804187011719C146.66013603515626,89.68719187011719,144.71973603515625,90.27463187011719,143.13543603515626,89.35706187011719C142.54153603515624,89.16287187011719,140.88763603515625,89.21627187011718,138.93923603515626,89.55773187011718C139.89893603515625,91.28282187011719,140.20963603515625,93.14384187011719,139.80343603515624,94.98544187011719C138.99753603515626,98.63474187011718,135.85643603515626,101.10744187011719,132.17323603515626,101.10744187011719C131.90943603515626,101.10904187011718,131.64723603515625,101.09774187011719,131.38023603515626,101.07024187011719ZM130.92223603515626,93.16654187011719C130.93033603515624,93.46264187011718,130.95623603515625,94.36244187011718,132.00973603515624,94.46274187011718C132.40783603515627,94.50164187011718,133.12633603515624,94.43524187011718,133.31893603515624,93.55494187011719C133.42903603515626,93.05484187011719,132.97263603515626,92.4043418701172,132.37553603515624,91.83142187011718C131.26053603515624,92.5272418701172,130.94493603515625,93.06454187011718,130.92223603515626,93.16654187011719Z" fill="#FA759E" fill-opacity="1"/></g><g><path d="M7.46647,74.30535469970704L9.52007,74.30535469970704C11.28077,74.30535469970704,12.90067,73.28105469970703,13.5868,71.65945469970703C17.3202,62.83495469970703,24.5345,55.27755469970703,33.936800000000005,50.00355469970703C35.2799,49.24945469970703,36.2153,47.906254699707034,36.2946,46.367354699707036C36.6005,40.436254699707035,34.577600000000004,33.99228469970703,33.4157,30.83824469970703C33.0953,29.96922569970703,33.927,29.10182469970703,34.809,29.381787699707033C40.74,31.255764699707033,45.8781,36.81942469970703,49.2296,41.31175469970703C50.2701,42.70515469970703,51.992,43.362154699707034,53.7041,43.06115469970703C57.5265,42.389554699707034,61.4962,42.02865469970703,65.57419999999999,42.02865469970703C95.854,42.02865469970703,120.4,61.47885469970703,120.4,85.46995469970703C120.4,98.71725469970703,112.911,110.57445469970703,101.1086,118.54285469970704C99.6958,119.49765469970703,98.9983,121.21135469970703,99.267,122.89605469970704L100.479,130.48625469970705C100.9127,133.199254699707,98.8154,135.65625469970703,96.0676,135.65625469970703L86.8806,135.65625469970703C84.6862,135.65625469970703,82.8155,134.06025469970703,82.4692,131.89325469970703L82.4222,131.60125469970703C82.0306,129.14905469970705,79.7229,127.49515469970703,77.2777,127.91755469970703C73.5071,128.56815469970704,69.5908,128.91285469970703,65.57419999999999,128.91285469970703C61.556,128.91285469970703,57.6414,128.56815469970704,53.8708,127.91755469970703C51.4256,127.49515469970703,49.1163,129.14905469970705,48.7263,131.60125469970703L48.6793,131.89325469970703C48.333,134.06025469970703,46.4639,135.65625469970703,44.2679,135.65625469970703L35.0809,135.65625469970703C32.333,135.65625469970703,30.2374,133.19825469970704,30.6694,130.48625469970705L31.8702,122.96725469970703C32.143699999999995,121.25345469970704,31.4495,119.49765469970703,30.0124,118.52505469970703C22.5424,113.47435469970704,16.8056,106.86525469970704,13.6062,99.32895469970703C12.912,97.69285469970703,11.3018,96.63935469970703,9.52331,96.63935469970703L7.46647,96.63935469970703C5.0001999999999995,96.63935469970703,3,94.63915469970703,3,92.17285469970703L3,78.77345469970703C3,76.30555469970703,5.0001999999999995,74.30535469970704,7.46647,74.30535469970704Z" fill="#FFD7E5" fill-opacity="1"/></g><g><path d="M28.58033046875,79.80431242675782C30.41223046875,79.80431242675782,31.89944046875,78.31871242675781,31.89944046875,76.48523242675782C31.89944046875,75.37670242675782,32.80244046875,74.47532242675781,33.91097046875,74.47532242675781C35.01949046875,74.47532242675781,35.92253046875,75.37670242675782,35.92253046875,76.48523242675782C35.92253046875,78.31871242675781,37.40973046875,79.80431242675782,39.24163046875,79.80431242675782C41.07353046875,79.80431242675782,42.560730468749995,78.31871242675781,42.560730468749995,76.48523242675782C42.560730468749995,71.71614242675781,38.68003046875,67.83711242675781,33.91097046875,67.83711242675781C29.14188046875,67.83711242675781,25.26123046875,71.71614242675781,25.26123046875,76.48523242675782C25.26123046875,78.31871242675781,26.74682046875,79.80431242675782,28.58033046875,79.80431242675782Z" fill="#FA759E" fill-opacity="1"/></g></g></g></svg>