<?xml version="1.0" standalone="no"?><!DOCTYPE svg PUBLIC "-//W3C//DTD SVG 1.1//EN" "http://www.w3.org/Graphics/SVG/1.1/DTD/svg11.dtd"><svg t="1679928788622" class="icon" viewBox="0 0 1024 1024" version="1.1" xmlns="http://www.w3.org/2000/svg" p-id="2868" xmlns:xlink="http://www.w3.org/1999/xlink" width="100" height="100"><path d="M532 540m-461.264 0a461.264 461.264 0 1 0 922.528 0 461.264 461.264 0 1 0-922.528 0Z" fill="#E6E7E8" p-id="2869"></path><path d="M500 508m-461.264 0a461.264 461.264 0 1 0 922.528 0 461.264 461.264 0 1 0-922.528 0Z" fill="#FFFFFF" p-id="2870"></path><path d="M500 484m-461.264 0a461.264 461.264 0 1 0 922.528 0 461.264 461.264 0 1 0-922.528 0Z" fill="#D4FBFF" p-id="2871"></path><path d="M687.752 391.184a84.704 84.704 0 0 0-14.096-28.912 100.272 100.272 0 0 0-26.688-24.464c-17.616-11.168-39.384-17.792-62.856-17.792h-72.552c-23.472 0-45.24 6.624-62.856 17.792a100.272 100.272 0 0 0-26.688 24.464 84.704 84.704 0 0 0-14.096 28.912 78.88 78.88 0 0 0-2.592 20.016v121.36c11.368 16.536 18.528 39.464 18.528 65.024 0 3.328-0.128 6.608-0.36 9.84a135.904 135.904 0 0 1 14.16-6.096c35.72-13 71.648-9.464 92.048 6.712l-19.4 31.776 35.288 11.872c-5.232 25.496-30.48 51.304-66.2 64.304-4.256 1.552-8.512 2.856-12.744 3.936 1.072 1.128 2.136 2.28 3.184 3.456 11.192 12.584 19.2 26.392 24.2 40.048 5.72 0.824 11.544 1.376 17.528 1.376h72.552c30.448 0 58.016-11.144 77.416-28.912a92.728 92.728 0 0 0 19.2-24.464c4.792-8.96 7.952-18.68 9.12-28.912 0.312-2.936 0.496-5.896 0.496-8.896V411.192c0-6.872-0.912-13.56-2.592-20.008z" fill="#FA759E" p-id="2872"></path><path d="M601.312 563.088l17.16 4.648c1.04 0.28 4.888 1.448 6.304 1.056 24.272-6.744 42.48-21.712 47.376-37.112 0 0-21.256-5.472-22.032-5.144l-17.192 7.32a2.832 2.832 0 0 1-3.72-1.496 2.832 2.832 0 0 1 1.496-3.72l17.192-7.32a3.072 3.072 0 0 1 0.624-0.184c1.896-0.32 3.712-0.984 4.952-2.448l11.368-13.336c-12.136-10.664-35.448-14.104-59.728-7.36-4.208 1.168-8.4 2.656-12.504 4.368-1.88 0.784-3.112 2.456-4.056 4.264a2.904 2.904 0 0 1-0.384 0.56l-13.6 15.448a2.816 2.816 0 0 1-4 0.256 2.832 2.832 0 0 1-0.256-4l13.6-15.448c0.704-0.8 5.016-14.616 5.016-21.424 0.016-25.192-10.784-46.744-26.08-55.592l-11.232 14.68a7.68 7.68 0 0 0-1.408 5.32l0.008 0.192 0.168 19.84a2.84 2.84 0 0 1-2.816 2.864h-0.024a2.84 2.84 0 0 1-2.84-2.816l-0.168-19.84a4.72 4.72 0 0 1 0.016-0.344 7.192 7.192 0 0 0-1.408-5.224L531.928 426.4c-15.304 8.832-26.128 30.368-26.136 55.56 0 4.264 0.328 8.592 0.92 12.896 0.272 1.96 1.552 3.512 3.04 4.816 0.16 0.144 0.312 0.312 0.44 0.496l10.352 14.688a2.832 2.832 0 0 1-4.64 3.272l-10.352-14.688c-0.6-0.848-9.416-6.504-14.096-7.816-24.272-6.768-47.752-2.76-60.136 8.736l11.216 14.008c1.176 1.464 2.88 2.376 4.736 2.632a4.048 4.048 0 0 1 0.304 0.056l18.488 4.624a2.832 2.832 0 1 1-1.376 5.504l-18.488-4.624a2.256 2.256 0 0 1-0.656-0.264c-1.584-0.888-3.56-0.696-5.264-0.064l-16.76 6.168c4.64 16.248 22.664 31.832 46.928 38.6 1.296 0.36 4.792-0.76 5.744-1.088l19.976-6.832a2.84 2.84 0 0 1 1.832 5.368l-19.976 6.832a2.84 2.84 0 0 1-0.92 0.152c-0.72 0-3.592 0.936-4.368 1.832a81.336 81.336 0 0 0-11.824 18c27.4-4.656 52.848 0.128 68.792 12.76l-19.4 31.776 14.024 4.72c4.36-3.312 8.56-7.136 12.408-11.568 4.264-4.896 9.816-17.568 9.808-18.616l-0.216-21.768a2.832 2.832 0 0 1 2.808-2.864c1.52-0.088 2.848 1.248 2.864 2.808l0.216 21.768c0.008 1.064 5.448 13.456 9.608 18.24 16.52 19.024 38.84 28.176 56.232 24.768 0 0-2.376-20.64-2.936-21.224l-14.224-16.408a2.84 2.84 0 0 1 4.088-3.928l13.576 14.152c0.16 0.168 0.296 0.352 0.408 0.552 0.872 1.568 2.616 2.448 4.376 2.808l18.144 3.696c5.808-16.744-0.128-40.128-16.648-59.152-1.608-1.856-6.352-4.488-7.12-4.488a2.648 2.648 0 0 1-0.744-0.104l-17.16-4.648a2.832 2.832 0 0 1-1.992-3.48 2.864 2.864 0 0 1 3.488-1.976z m-9.568-15.544a7.856 7.856 0 0 1-3.888-1.056l-29.536 7.304 17.656 24.344a7.968 7.968 0 1 1-9.456 7.824c0-0.344 0.056-0.672 0.104-1l-18.088-24.944-18.712 25.16c0.024 0.256 0.08 0.504 0.08 0.768a7.976 7.976 0 0 1-7.984 7.976c-0.216 0-0.424-0.048-0.64-0.064-0.336 0.064-0.648 0.232-0.992 0.232a5.792 5.792 0 0 1-5.72-5.04 7.96 7.96 0 0 1 6.096-10.952l18.136-24.392-31.504-8.104a7.936 7.936 0 0 1-13.096-6.08c0-4.408 3.576-7.976 7.984-7.976 2.12 0 4.032 0.84 5.456 2.192l35.096 9.032-0.24-30.336a7.976 7.976 0 1 1 13.728-5.512 7.896 7.896 0 0 1-2.152 5.408l0.24 30.536 30.728-7.6a7.976 7.976 0 1 1 6.704 12.28z" fill="#FFFFFF" p-id="2873"></path><path d="M856.16 123.504c-2.208-8.32-10.744-13.272-21.904-11.064l-300.912 79.864c-5.48 2.208-10.44 10.744-8.232 19.064s10.744 13.272 16.232 11.064l300.912-79.864c11.16-2.208 16.112-10.744 13.904-19.064z" fill="#6DC9F7" p-id="2874"></path><path d="M545.592 651.688l-35.288-11.872 19.4-31.776c-20.4-16.176-56.328-19.712-92.048-6.712-4.936 1.792-9.656 3.848-14.16 6.096 0.232-3.232 0.36-6.512 0.36-9.84 0-38.008-15.616-70.568-37.784-84.2l-23.224 29.104-23.224-29.104c-22.176 13.632-37.784 46.192-37.784 84.2 0 3.328 0.128 6.608 0.36 9.84a135.904 135.904 0 0 0-14.16-6.096c-35.72-13-71.648-9.464-92.048 6.712l19.4 31.776-35.288 11.872c5.232 25.496 30.48 51.304 66.2 64.304 4.256 1.552 8.512 2.856 12.744 3.936-1.072 1.128-2.136 2.28-3.184 3.456-25.272 28.392-35.248 63.096-27.752 88.024l36.696-6.296-2 37.176c25.632 4.552 58.936-9.384 84.208-37.784a133.552 133.552 0 0 0 15.832-21.848 133.08 133.08 0 0 0 15.832 21.848c25.272 28.392 58.576 42.336 84.208 37.784l-2-37.176 36.696 6.296c7.496-24.928-2.48-59.624-27.752-88.024a131.312 131.312 0 0 0-3.184-3.456 138.424 138.424 0 0 0 12.744-3.936c35.72-13 60.968-38.808 66.2-64.304z" fill="#FFD7E5" p-id="2875"></path><path d="M431.32 665.928a11.016 11.016 0 0 0-13.496-7.792 10.96 10.96 0 0 0-6.504 4.872l-40.464 10.848V628.88c1.856-1.976 3.016-4.616 3.016-7.544a11.024 11.024 0 0 0-22.048 0c0 2.928 1.16 5.568 3.024 7.544v44.968l-40.472-10.848a10.96 10.96 0 0 0-6.504-4.872 11.016 11.016 0 1 0-5.704 21.288c2.824 0.76 5.68 0.32 8.072-0.968l39.096 10.48-24.368 32.384c-2.656 0.464-5.16 1.84-6.912 4.168a11.024 11.024 0 0 0 17.616 13.248c1.752-2.328 2.376-5.12 2.088-7.808l25.096-33.352 25.096 33.36c-0.288 2.68 0.336 5.472 2.088 7.8a11.024 11.024 0 0 0 17.616-13.248 10.944 10.944 0 0 0-6.912-4.168l-24.368-32.392 39.088-10.472c2.392 1.288 5.24 1.728 8.072 0.968a11.016 11.016 0 0 0 7.784-13.488z" fill="#FA759E" p-id="2876"></path><path d="M362.848 684.272m-16 0a16 16 0 1 0 32 0 16 16 0 1 0-32 0Z" fill="#FA759E" p-id="2877"></path><path d="M338.848 179.032l8.84 35.96a73.912 73.912 0 0 0 54.12 54.12l35.96 8.84-35.96 8.84a73.912 73.912 0 0 0-54.12 54.12l-8.84 35.96-8.84-35.96a73.912 73.912 0 0 0-54.12-54.12l-35.96-8.84 35.96-8.84a73.912 73.912 0 0 0 54.12-54.12l8.84-35.96z" fill="#0089EF" p-id="2878"></path><path d="M724.888 717.576l5.84 23.744a48.8 48.8 0 0 0 35.736 35.736l23.744 5.84-23.744 5.84a48.8 48.8 0 0 0-35.736 35.736l-5.84 23.744-5.84-23.744a48.8 48.8 0 0 0-35.736-35.736l-23.744-5.84 23.744-5.84a48.8 48.8 0 0 0 35.736-35.736l5.84-23.744z" fill="#6DC9F7" p-id="2879"></path><path d="M812.624 158.696l31.192-8.28c7.672-1.52 13.896-5.544 17.512-11.344a22.232 22.232 0 0 0 2.568-17.624c-3.432-12.888-16.256-19.816-31.192-16.856l-66.216 17.568C690.728 69.664 598.944 38.736 500 38.736c-190.456 0-360.664 113.672-433.64 289.592a8.008 8.008 0 0 0 14.784 6.128C151.624 164.528 316.04 54.736 500 54.736a450.44 450.44 0 0 1 246.016 72.864l-214.728 56.976-0.936 0.312c-8.968 3.616-16.312 15.944-12.968 28.536a24.4 24.4 0 0 0 11.056 14.488l-22.408 58.744h-9.44c-4.936 0-8.944 4-8.944 8.944v18.672a122.288 122.288 0 0 0-43.232 16.784c-11.456 7.272-21.152 16.168-28.824 26.448a92.352 92.352 0 0 0-15.416 31.664 87.4 87.4 0 0 0-2.848 22.032v100.616a64.552 64.552 0 0 0-7.064-5.248 8.024 8.024 0 0 0-10.448 1.832l-16.968 21.264-16.976-21.272a8.024 8.024 0 0 0-10.448-1.824c-24.712 15.2-40.872 49.704-41.568 88.408-1.024-0.4-2.056-0.792-3.088-1.168-37.336-13.592-76.504-10.472-99.752 7.952a8 8 0 0 0-1.856 10.44l14.176 23.224-25.792 8.672a8 8 0 0 0-5.288 9.192c5.96 29.056 33.952 56.624 71.304 70.216l1.336 0.48c-22.864 28.648-32.432 63.176-24.448 89.72a7.952 7.952 0 0 0 9.008 5.576l26.816-4.6-1.456 27.168a8 8 0 0 0 6.592 8.304c3.68 0.656 7.472 0.976 11.336 0.976 26.784 0 57.152-15.368 80.24-41.32a142.16 142.16 0 0 0 9.856-12.376c3.024 4.272 6.32 8.408 9.848 12.368 26.424 29.696 62.392 45.544 91.576 40.344a8 8 0 0 0 6.592-8.304l-1.456-27.168 26.816 4.6a7.952 7.952 0 0 0 9.008-5.576c2.288-7.592 2.976-15.872 2.488-24.44H594.72c7.344 0 13.304-5.96 13.304-13.304v-5.432c22.288-4.2 42.984-14.144 58.912-28.736a100.376 100.376 0 0 0 20.848-26.592 88.592 88.592 0 0 0 10.032-31.864c0.328-3.208 0.528-6.44 0.528-9.72V411.192c0-7.384-0.96-14.8-2.856-22.056a92.48 92.48 0 0 0-15.424-31.656c-7.672-10.272-17.368-19.168-28.816-26.432a122.216 122.216 0 0 0-43.232-16.776V295.6c0-4.936-4-8.944-8.944-8.944h-9.784l-26.264-61.696 231.064-61.344c97.288 83.2 159.168 206.64 159.168 344.384 0 249.928-203.336 453.264-453.264 453.264S46.736 757.928 46.736 508a8 8 0 0 0-16 0c0 258.752 210.512 469.264 469.264 469.264 258.76 0 469.264-210.512 469.264-469.264 0-138.696-60.664-263.32-156.64-349.304z m-279.776 50.624c-1.144-4.288 1.552-8.472 3.216-9.456l4.888-1.296a7.976 7.976 0 0 0-2.648 3.48l-3.904 10.24a8.176 8.176 0 0 1-1.552-2.968z m-41.416 592.912l-26.432-4.536-14.728-16.56a8 8 0 1 0-11.96 10.632l14.728 16.56 1.44 26.776c-22.496 0.672-49.544-13.128-69.832-35.928a124.528 124.528 0 0 1-13.808-18.872v-22.6a8 8 0 0 0-16 0v22.6a125.592 125.592 0 0 1-13.808 18.88c-20.288 22.808-47.408 36.768-69.832 35.928l1.44-26.776 14.728-16.56a8 8 0 1 0-11.96-10.632l-14.728 16.56-26.432 4.536c-3.224-22.152 7.28-50.72 27.576-73.528 0.504-0.568 1.024-1.112 1.536-1.664l21.848-5.96a8 8 0 0 0-4.208-15.44l-21.848 5.96a126.88 126.88 0 0 1-10.128-3.128c-28.68-10.44-51.496-30.6-59.168-51.632l25.424-8.552 20.824 7.576a7.992 7.992 0 0 0 5.472-15.032l-20.824-7.584-13.976-22.888c19.392-11.176 49.824-11.968 78.52-1.512 4.048 1.472 8.096 3.224 12.072 5.152l16.784 16.776a8.008 8.008 0 0 0 11.32-11.328l-15.4-15.392c-0.112-2.152-0.24-4.296-0.24-6.48 0-30.528 11.144-58.856 28.28-73.264l16.728 20.968v22.16a8 8 0 0 0 16 0v-22.16l16.728-20.96c17.136 14.4 28.28 42.736 28.28 73.264 0 2.16-0.128 4.272-0.232 6.392l-15.44 15.424a8 8 0 1 0 11.32 11.328l16.648-16.632a126.608 126.608 0 0 1 12.248-5.24c28.672-10.432 59.12-9.656 78.52 1.52l-13.976 22.888-20.824 7.584a8 8 0 0 0 5.472 15.032l20.824-7.576 25.424 8.552c-7.672 21.032-30.48 41.192-59.168 51.632-3.288 1.2-6.712 2.2-10.136 3.128l-21.848-5.96a8 8 0 0 0-4.208 15.44l21.856 5.96c0.512 0.552 1.032 1.096 1.528 1.664 20.296 22.784 30.8 51.352 27.576 73.504zM667.232 367.04a76.576 76.576 0 0 1 12.776 26.16c1.552 5.92 2.336 11.976 2.336 17.992v262.424c0 2.728-0.168 5.408-0.44 7.992a72.72 72.72 0 0 1-8.224 26.04 84.592 84.592 0 0 1-17.552 22.344c-18.6 17.032-44.848 26.808-72.016 26.808h-72.552c-3.936 0-7.84-0.264-11.712-0.672a133.96 133.96 0 0 0-19.048-32.144l1.336-0.48c37.36-13.6 65.344-41.16 71.304-70.224a7.984 7.984 0 0 0-5.288-9.184l-25.784-8.672 14.184-23.224a8 8 0 0 0-1.856-10.44c-23.24-18.424-62.408-21.552-99.752-7.96-1.032 0.376-2.064 0.768-3.096 1.168-0.44-24.72-7.248-47.656-18.504-65.016V411.192c0-6.016 0.784-12.072 2.328-17.976a76.528 76.528 0 0 1 12.768-26.168c6.496-8.704 14.76-16.272 24.56-22.496 17.08-10.824 37.336-16.544 58.576-16.544h72.552c21.24 0 41.496 5.72 58.568 16.544 9.784 6.224 18.048 13.792 24.536 22.488zM571.904 286.656h-48.752l21.696-56.872 2.552-0.68 24.504 57.552zM553.152 201.76c-1.144-2.68-3.656-4.312-6.496-4.704l289.392-76.808c6.352-1.192 11.2 0.88 12.384 5.312a6.24 6.24 0 0 1-0.672 5.04c-1.248 2.008-3.76 3.472-7.552 4.24L556.72 210.136l-3.568-8.376z" fill="#3A2C60" p-id="2880"></path><path d="M40.112 471.216a8.008 8.008 0 0 0 8.736-7.2 451.52 451.52 0 0 1 18.648-92.008 8 8 0 1 0-15.264-4.8 468.216 468.216 0 0 0-19.312 95.28 7.984 7.984 0 0 0 7.192 8.728zM273.976 294.568a65.712 65.712 0 0 1 48.256 48.256l8.84 35.96a8 8 0 0 0 15.536 0l8.84-35.96a65.712 65.712 0 0 1 48.256-48.256l35.96-8.84a8 8 0 0 0 0-15.536l-35.96-8.84a65.712 65.712 0 0 1-48.256-48.256l-8.84-35.96a8 8 0 0 0-15.536 0l-8.84 35.96a65.712 65.712 0 0 1-48.256 48.256l-35.96 8.84a8 8 0 0 0 0 15.536l35.96 8.84z m3.824-17.688a81.688 81.688 0 0 0 59.976-59.976l1.072-4.368 1.072 4.368a81.688 81.688 0 0 0 59.976 59.976l4.368 1.072-4.368 1.072a81.688 81.688 0 0 0-59.976 59.976l-1.072 4.368-1.072-4.368a81.688 81.688 0 0 0-59.976-59.976l-4.368-1.072 4.368-1.072zM681.4 796.504a40.688 40.688 0 0 1 29.88 29.872l5.84 23.744a8 8 0 0 0 15.536 0l5.832-23.744a40.688 40.688 0 0 1 29.888-29.872l23.744-5.84a8.008 8.008 0 0 0 0.008-15.536l-23.744-5.84a40.696 40.696 0 0 1-29.888-29.872l-5.832-23.744a7.984 7.984 0 0 0-15.536 0l-5.84 23.744a40.672 40.672 0 0 1-29.88 29.872l-23.744 5.84a8.008 8.008 0 0 0 0 15.536l23.736 5.84z m43.488-47a56.552 56.552 0 0 0 33.392 33.392 56.552 56.552 0 0 0-33.392 33.392 56.592 56.592 0 0 0-33.392-33.392 56.568 56.568 0 0 0 33.392-33.392z" fill="#3A2C60" p-id="2881"></path></svg>