<svg xmlns="http://www.w3.org/2000/svg" xmlns:xlink="http://www.w3.org/1999/xlink" fill="none" version="1.1" width="100" height="100" viewBox="0 0 100 100"><g style="mix-blend-mode:passthrough"><g style="mix-blend-mode:passthrough"><g><path d="M99.0089318359375,52.66534006347656Q99.0089318359375,53.818640063476565,98.9524318359375,54.97054006347656Q98.8958318359375,56.12244006347656,98.7828318359375,57.27014006347656Q98.6697318359375,58.417940063476564,98.5005318359375,59.55874006347656Q98.3313318359375,60.69954006347656,98.1064318359375,61.830640063476565Q97.8814318359375,62.96174006347656,97.6012318359375,64.08054006347656Q97.3210318359375,65.19924006347657,96.9863318359375,66.30284006347657Q96.6516318359375,67.40654006347657,96.2631318359375,68.49234006347656Q95.8746318359375,69.57824006347656,95.4333318359375,70.64374006347656Q94.9921318359375,71.70924006347656,94.4990318359375,72.75184006347656Q94.0060318359375,73.79434006347657,93.4625318359375,74.81154006347656Q92.9189318359375,75.82864006347656,92.3261318359375,76.81784006347657Q91.7333318359375,77.80704006347656,91.0926318359375,78.76594006347656Q90.4520318359375,79.72484006347656,89.7651318359375,80.65124006347656Q89.0782318359375,81.57754006347656,88.3466318359375,82.46904006347657Q87.6151318359375,83.36054006347656,86.8407318359375,84.21514006347657Q86.0663318359375,85.06964006347657,85.2510318359375,85.88514006347657Q84.4356318359375,86.70064006347656,83.5812318359375,87.47514006347656Q82.7268318359375,88.24964006347656,81.8354318359375,88.98124006347656Q80.9440318359375,89.71294006347657,80.0178318359375,90.39994006347656Q79.0917318359375,91.08694006347656,78.1329318359375,91.72764006347656Q77.1741318359375,92.36844006347657,76.1850318359375,92.96134006347656Q75.1960318359375,93.55424006347656,74.1790318359375,94.09784006347657Q73.1621318359375,94.64154006347657,72.1197318359375,95.13464006347657Q71.0773318359375,95.62774006347657,70.0119318359375,96.06904006347656Q68.9466318359375,96.51044006347657,67.86093183593749,96.89894006347656Q66.77523183593749,97.28754006347656,65.67173183593749,97.62234006347656Q64.5683318359375,97.95704006347657,63.4497318359375,98.23734006347657Q62.3312318359375,98.51754006347656,61.2002318359375,98.74254006347657Q60.0692318359375,98.96754006347656,58.9286318359375,99.13674006347657Q57.7880318359375,99.30594006347657,56.6404318359375,99.41904006347656Q55.4929318359375,99.53204006347656,54.3411318359375,99.58864006347656Q53.1894318359375,99.64524006347656,52.0363318359375,99.64524006347656Q50.8832318359375,99.64524006347656,49.7315318359375,99.58864006347656Q48.5797318359375,99.53204006347656,47.4322318359375,99.41904006347656Q46.2846318359375,99.30594006347657,45.1440318359375,99.13674006347657Q44.0033318359375,98.96754006347656,42.8724318359375,98.74254006347657Q41.7414318359375,98.51754006347656,40.6229318359375,98.23734006347657Q39.5043318359375,97.95704006347657,38.4009318359375,97.62234006347656Q37.2974318359375,97.28754006347656,36.2117318359375,96.89894006347656Q35.126031835937496,96.51044006347657,34.0606318359375,96.06904006347656Q32.9953318359375,95.62774006347657,31.9529318359375,95.13464006347657Q30.9105318359375,94.64154006347657,29.8935318359375,94.09794006347656Q28.8766318359375,93.55424006347656,27.8875318359375,92.96134006347656Q26.8985318359375,92.36844006347657,25.9397318359375,91.72764006347656Q24.9809318359375,91.08694006347656,24.0547318359375,90.39994006347656Q23.1285318359375,89.71294006347657,22.2372318359375,88.98124006347656Q21.3458318359375,88.24964006347656,20.491431835937497,87.47514006347656Q19.6370318359375,86.70064006347656,18.821631835937502,85.88514006347657Q18.0062318359375,85.06964006347657,17.2319318359375,84.21514006347657Q16.457531835937502,83.36054006347656,15.7259318359375,82.46904006347657Q14.9944518359375,81.57754006347656,14.3075418359375,80.65124006347656Q13.6206318359375,79.72484006347656,12.9800018359375,78.76594006347656Q12.339361835937499,77.80704006347656,11.7465418359375,76.81784006347657Q11.1537218359375,75.82864006347656,10.6101518359375,74.81154006347656Q10.0665818359375,73.79434006347657,9.5735618359375,72.75184006347656Q9.080541835937499,71.70924006347656,8.6392618359375,70.64374006347656Q8.197981835937501,69.57824006347656,7.8095118359375,68.49234006347656Q7.421041835937499,67.40654006347657,7.0863118359375,66.30284006347657Q6.7515718359375,65.19924006347657,6.4713918359375,64.08054006347656Q6.1912118359375,62.96174006347656,5.9662468359375005,61.830640063476565Q5.7412858359375,60.69954006347656,5.5720888359375,59.55874006347656Q5.4028918359375,58.417940063476564,5.2898668359375,57.27014006347656Q5.1768418359375,56.12244006347656,5.1202613359375,54.97054006347656Q5.0636807459375,53.818640063476565,5.0636807459375,52.66534006347656Q5.0636807459375,51.51204006347656,5.1202613359375,50.360140063476564Q5.1768418359375,49.20824006347656,5.2898668359375,48.060540063476566Q5.4028918359375,46.91274006347656,5.5720888359375,45.77194006347656Q5.7412858359375,44.631140063476565,5.9662468359375005,43.50004006347656Q6.1912118359375,42.36884006347656,6.4713918359375,41.250140063476564Q6.7515718359375,40.13144006347656,7.086301835937499,39.027740063476564Q7.421041835937499,37.924140063476564,7.8095118359375,36.83824006347656Q8.197981835937501,35.75244006347656,8.6392618359375,34.68694006347656Q9.080541835937499,33.62144006347656,9.5735618359375,32.57884006347656Q10.0665718359375,31.536240063476562,10.6101518359375,30.519140063476563Q11.1537218359375,29.502040063476564,11.7465418359375,28.512840063476563Q12.339361835937499,27.523640063476563,12.9800018359375,26.564740063476563Q13.6206318359375,25.605740063476564,14.3075418359375,24.679440063476562Q14.9944518359375,23.75314006347656,15.7259318359375,22.861640063476564Q16.457531835937502,21.970140063476563,17.2319318359375,21.115540063476562Q18.0062318359375,20.261040063476564,18.821631835937502,19.445540063476564Q19.6370318359375,18.630040063476564,20.491431835937497,17.85554006347656Q21.3458318359375,17.081040063476564,22.2372318359375,16.34934006347656Q23.1285318359375,15.617740063476562,24.0547318359375,14.930730063476563Q24.9809318359375,14.243710063476563,25.9397318359375,13.602980063476561Q26.8985318359375,12.962240063476562,27.8875318359375,12.369330063476562Q28.8766318359375,11.776420063476563,29.8935318359375,11.232770063476561Q30.9105318359375,10.689110063476562,31.9529318359375,10.196010063476564Q32.9953318359375,9.702920063476562,34.0606318359375,9.261570063476562Q35.126031835937496,8.820230063476563,36.2117318359375,8.431690063476562Q37.2974318359375,8.043160063476563,38.4009318359375,7.708380063476563Q39.5043318359375,7.373600063476562,40.6229318359375,7.093370063476563Q41.7414318359375,6.813140063476562,42.8724318359375,6.588145063476563Q44.0033318359375,6.363149063476563,45.1440318359375,6.193926063476562Q46.2846318359375,6.024703063476562,47.4322318359375,5.911661063476562Q48.5797318359375,5.798619063476562,49.7315318359375,5.742029363476562Q50.8832318359375,5.6854400634765625,52.0363318359375,5.6854400634765625Q53.1894318359375,5.6854400634765625,54.3411318359375,5.742029363476562Q55.4929318359375,5.798619063476562,56.6404318359375,5.911661063476562Q57.7880318359375,6.024703063476562,58.9286318359375,6.193926063476562Q60.0692318359375,6.363149063476563,61.2002318359375,6.588145063476563Q62.3312318359375,6.813140063476562,63.4497318359375,7.093370063476563Q64.5683318359375,7.373600063476562,65.67173183593749,7.708380063476563Q66.77523183593749,8.043160063476563,67.86093183593749,8.431690063476562Q68.9466318359375,8.820230063476563,70.0119318359375,9.261570063476562Q71.0773318359375,9.702920063476562,72.1197318359375,10.196010063476564Q73.1621318359375,10.689110063476562,74.1790318359375,11.232770063476561Q75.1960318359375,11.776420063476563,76.1850318359375,12.369330063476562Q77.1741318359375,12.962240063476562,78.1329318359375,13.602980063476561Q79.0917318359375,14.243710063476563,80.0179318359375,14.930730063476563Q80.9441318359375,15.617740063476562,81.8354318359375,16.34934006347656Q82.7268318359375,17.081040063476564,83.5812318359375,17.85554006347656Q84.4356318359375,18.630040063476564,85.2510318359375,19.445540063476564Q86.0663318359375,20.261040063476564,86.8407318359375,21.115540063476562Q87.6151318359375,21.970140063476563,88.3466318359375,22.861640063476564Q89.0782318359375,23.75314006347656,89.7651318359375,24.679440063476562Q90.4520318359375,25.605740063476564,91.0926318359375,26.564740063476563Q91.7333318359375,27.523640063476563,92.3261318359375,28.512840063476563Q92.9189318359375,29.502040063476564,93.4625318359375,30.519140063476563Q94.0060318359375,31.536240063476562,94.4991318359375,32.57884006347656Q94.9921318359375,33.62144006347656,95.4333318359375,34.68694006347656Q95.8746318359375,35.75244006347656,96.2631318359375,36.83824006347656Q96.6516318359375,37.924140063476564,96.9863318359375,39.027740063476564Q97.3210318359375,40.13144006347656,97.6012318359375,41.250140063476564Q97.8814318359375,42.36884006347656,98.1064318359375,43.50004006347656Q98.3313318359375,44.631140063476565,98.5005318359375,45.77194006347656Q98.6697318359375,46.91274006347656,98.7828318359375,48.060540063476566Q98.8958318359375,49.20824006347656,98.9524318359375,50.360140063476564Q99.0089318359375,51.51204006347656,99.0089318359375,52.66534006347656Z" fill="#E6E7E8" fill-opacity="1"/></g><g><path d="M95.74191416015626,49.407257739257815Q95.74191416015626,50.56015773925781,95.68531416015625,51.71165773925781Q95.62871416015625,52.863157739257815,95.51571416015625,54.01045773925781Q95.40271416015625,55.157857739257814,95.23361416015625,56.298257739257814Q95.06441416015625,57.43865773925781,94.83951416015626,58.56935773925781Q94.61461416015625,59.70015773925781,94.33441416015626,60.81845773925781Q94.05431416015625,61.93685773925781,93.71961416015625,63.04005773925781Q93.38501416015625,64.14335773925782,92.99661416015626,65.22885773925782Q92.60821416015625,66.31435773925782,92.16701416015626,67.37945773925782Q91.72581416015625,68.44455773925782,91.23281416015625,69.48675773925781Q90.73991416015625,70.52895773925782,90.19651416015626,71.54575773925781Q89.65301416015625,72.56255773925781,89.06031416015625,73.55135773925781Q88.46761416015624,74.54025773925781,87.82711416015626,75.49885773925782Q87.18651416015625,76.45745773925782,86.49981416015625,77.3834577392578Q85.81301416015626,78.30945773925781,85.08161416015625,79.2006577392578Q84.35021416015626,80.09185773925782,83.57601416015625,80.94615773925781Q82.80171416015625,81.80035773925782,81.98651416015625,82.61555773925781Q81.17131416015626,83.43075773925781,80.31711416015625,84.20505773925781Q79.46281416015626,84.97925773925782,78.57161416015624,85.71065773925781Q77.68041416015625,86.44205773925782,76.75441416015624,87.12885773925781Q75.82841416015626,87.81555773925781,74.86981416015625,88.45615773925782Q73.91121416015625,89.09665773925781,72.92231416015625,89.68935773925782Q71.93351416015625,90.28205773925781,70.91671416015625,90.82555773925782Q69.89991416015626,91.36895773925781,68.85771416015625,91.86195773925782Q67.81551416015625,92.35485773925781,66.75041416015625,92.79605773925782Q65.68531416015625,93.23725773925781,64.59981416015626,93.62565773925782Q63.51431416015625,94.01395773925782,62.41101416015625,94.34865773925782Q61.30781416015625,94.68335773925781,60.18941416015625,94.96345773925782Q59.07111416015625,95.24355773925781,57.94031416015625,95.46855773925782Q56.80961416015625,95.69345773925781,55.66921416015625,95.86265773925781Q54.52881416015625,96.03175773925781,53.38141416015625,96.14475773925781Q52.23411416015625,96.25775773925781,51.08261416015625,96.31435773925782Q49.93111416015625,96.37095773925782,48.77821416015625,96.37095773925782Q47.62531416015625,96.37095773925782,46.47381416015625,96.31435773925782Q45.32231416015625,96.25775773925781,44.17491416015625,96.14475773925781Q43.02761416015625,96.03175773925781,41.88721416015625,95.86255773925781Q40.74681416015625,95.69345773925781,39.61601416015625,95.46855773925782Q38.48531416015625,95.24355773925781,37.36691416015625,94.96345773925782Q36.24861416015625,94.68335773925781,35.14531416015625,94.34865773925782Q34.04211416015625,94.01405773925781,32.95661416015625,93.62565773925782Q31.87111416015625,93.23725773925781,30.80601416015625,92.79605773925782Q29.74081416015625,92.35485773925781,28.69861416015625,91.86185773925781Q27.65641416015625,91.36895773925781,26.63971416015625,90.82555773925782Q25.62291416015625,90.28205773925781,24.63401416015625,89.68935773925782Q23.64521416015625,89.09665773925781,22.68661416015625,88.45615773925782Q21.72801416015625,87.81555773925781,20.80201416015625,87.12885773925781Q19.87591416015625,86.44205773925782,18.98471416015625,85.71065773925781Q18.09351416015625,84.97925773925782,17.239314160156248,84.20505773925781Q16.38511416015625,83.43075773925781,15.56981416015625,82.61555773925781Q14.75461416015625,81.80035773925782,13.98041416015625,80.94615773925781Q13.20621416015625,80.09185773925782,12.47481416015625,79.2006577392578Q11.74339416015625,78.30945773925781,11.05661416015625,77.3834577392578Q10.36983416015625,76.45745773925782,9.72932416015625,75.49885773925782Q9.08880416015625,74.54025773925781,8.49610416015625,73.55135773925781Q7.90339416015625,72.56255773925781,7.35992416015625,71.54575773925781Q6.81645416015625,70.52895773925782,6.32353416015625,69.48675773925781Q5.83060416015625,68.44455773925782,5.3894141601562495,67.37945773925782Q4.94821416015625,66.31435773925782,4.55982416015625,65.22885773925782Q4.17142416015625,64.14335773925782,3.83675416015625,63.04005773925781Q3.50208416015625,61.93685773925781,3.2219541601562502,60.81845773925781Q2.94182416015625,59.70015773925781,2.71690716015625,58.56935773925781Q2.4919891601562503,57.43865773925781,2.32282416015625,56.298257739257814Q2.15365916015625,55.157857739257814,2.04065616015625,54.01045773925781Q1.92765316015625,52.863157739257815,1.87108296015625,51.71165773925781Q1.81451316586725,50.56015773925781,1.81451316586725,49.407257739257815Q1.81451316586725,48.25435773925781,1.87108296015625,47.102857739257814Q1.92765316015625,45.951357739257816,2.04065616015625,44.80395773925781Q2.15365916015625,43.65665773925781,2.32282416015625,42.51625773925781Q2.4919891601562503,41.37585773925781,2.71690716015625,40.24505773925781Q2.94182416015625,39.11435773925781,3.2219541601562502,37.99595773925781Q3.50208416015625,36.87765773925781,3.83675416015625,35.774357739257816Q4.17142416015625,34.671157739257815,4.55981416015625,33.58565773925781Q4.94821416015625,32.500157739257816,5.3894141601562495,31.43505773925781Q5.83060416015625,30.369857739257814,6.32353416015625,29.327657739257813Q6.81645416015625,28.28545773925781,7.35992416015625,27.26875773925781Q7.90339416015625,26.25195773925781,8.49610416015625,25.263057739257814Q9.08880416015625,24.274257739257813,9.72932416015625,23.315657739257812Q10.36983416015625,22.35705773925781,11.05661416015625,21.430957739257813Q11.74339416015625,20.50495773925781,12.47481416015625,19.613757739257814Q13.20621416015625,18.722557739257812,13.98041416015625,17.86835773925781Q14.75461416015625,17.01415773925781,15.56981416015625,16.19885773925781Q16.38511416015625,15.383657739257812,17.239314160156248,14.609457739257813Q18.09351416015625,13.835257739257813,18.98471416015625,13.103857739257812Q19.87591416015625,12.372437739257812,20.80191416015625,11.685657739257813Q21.72801416015625,10.998877739257813,22.68661416015625,10.358367739257812Q23.64521416015625,9.717857739257813,24.63401416015625,9.125147739257812Q25.62291416015625,8.532437739257812,26.63971416015625,7.988967739257813Q27.65641416015625,7.445497739257813,28.69861416015625,6.952577739257812Q29.74081416015625,6.459647739257813,30.80601416015625,6.018457739257812Q31.87111416015625,5.577267739257813,32.95661416015625,5.188867739257812Q34.04211416015625,4.800467739257813,35.14531416015625,4.4657977392578125Q36.24861416015625,4.1311277392578125,37.36691416015625,3.8509977392578127Q38.48531416015625,3.5708677392578125,39.61601416015625,3.3459537392578125Q40.74681416015625,3.1210347392578126,41.88721416015625,2.9518707392578127Q43.02761416015625,2.7827057392578123,44.17491416015625,2.6697027392578123Q45.32231416015625,2.5566997392578124,46.47381416015625,2.5001295392578124Q47.62531416015625,2.4435597278378123,48.77821416015625,2.4435597278378123Q49.93111416015625,2.4435597278378123,51.08261416015625,2.5001295392578124Q52.23411416015625,2.5566997392578124,53.38141416015625,2.6697027392578123Q54.52881416015625,2.7827057392578123,55.66921416015625,2.9518707392578127Q56.80961416015625,3.1210347392578126,57.94031416015625,3.3459537392578125Q59.07111416015625,3.5708677392578125,60.18941416015625,3.8509977392578127Q61.30781416015625,4.1311277392578125,62.41101416015625,4.4657977392578125Q63.51431416015625,4.800467739257813,64.59981416015626,5.188867739257812Q65.68531416015625,5.577267739257813,66.75041416015625,6.018457739257812Q67.81551416015625,6.459647739257813,68.85771416015625,6.952577739257812Q69.89991416015626,7.445497739257813,70.91671416015625,7.988967739257813Q71.93351416015625,8.532437739257812,72.92231416015625,9.125147739257812Q73.91121416015625,9.717857739257813,74.86981416015625,10.358367739257812Q75.82841416015626,10.998877739257813,76.75441416015624,11.685657739257813Q77.68041416015625,12.372437739257812,78.57161416015624,13.103857739257812Q79.46281416015626,13.835257739257813,80.31711416015625,14.609457739257813Q81.17131416015626,15.383657739257812,81.98651416015625,16.19885773925781Q82.80171416015625,17.01415773925781,83.57601416015625,17.86835773925781Q84.35021416015626,18.722557739257812,85.08161416015625,19.613757739257814Q85.81301416015626,20.50495773925781,86.49981416015625,21.430957739257813Q87.18651416015625,22.35705773925781,87.82711416015626,23.315657739257812Q88.46761416015624,24.274257739257813,89.06031416015625,25.263057739257814Q89.65301416015625,26.25195773925781,90.19651416015626,27.26875773925781Q90.73991416015625,28.28545773925781,91.23291416015626,29.327657739257813Q91.72581416015625,30.369857739257814,92.16701416015626,31.43505773925781Q92.60821416015625,32.500157739257816,92.99661416015626,33.58565773925781Q93.38491416015626,34.671157739257815,93.71961416015625,35.774357739257816Q94.05431416015625,36.87765773925781,94.33441416015626,37.99595773925781Q94.61451416015625,39.11435773925781,94.83951416015626,40.24505773925781Q95.06441416015625,41.37585773925781,95.23361416015625,42.51625773925781Q95.40271416015625,43.65665773925781,95.51571416015625,44.80395773925781Q95.62871416015625,45.951357739257816,95.68531416015625,47.102857739257814Q95.74191416015626,48.25435773925781,95.74191416015626,49.407257739257815Z" fill="#FFFFFF" fill-opacity="1"/></g><g><path d="M95.74191416015626,46.9637Q95.74191416015626,48.1166,95.68531416015625,49.2681Q95.62871416015625,50.4196,95.51571416015625,51.5669Q95.40271416015625,52.7143,95.23361416015625,53.8547Q95.06441416015625,54.9951,94.83951416015626,56.1258Q94.61461416015625,57.2566,94.33441416015626,58.3749Q94.05431416015625,59.4933,93.71961416015625,60.5965Q93.38501416015625,61.6998,92.99661416015626,62.7853Q92.60821416015625,63.8708,92.16701416015626,64.9359Q91.72581416015625,66.001,91.23281416015625,67.0432Q90.73991416015625,68.0854,90.19651416015626,69.1022Q89.65301416015625,70.119,89.06031416015625,71.1078Q88.46761416015624,72.0967,87.82711416015626,73.0553Q87.18651416015625,74.0139,86.49981416015625,74.9399Q85.81301416015626,75.8659,85.08161416015625,76.7571Q84.35021416015626,77.6483,83.57601416015625,78.5026Q82.80171416015625,79.3568,81.98651416015625,80.172Q81.17131416015626,80.9872,80.31711416015625,81.7615Q79.46281416015626,82.5357,78.57161416015624,83.2671Q77.68041416015625,83.9985,76.75441416015624,84.6853Q75.82841416015626,85.372,74.86981416015625,86.0126Q73.91121416015625,86.6531,72.92231416015625,87.2458Q71.93351416015625,87.8385,70.91671416015625,88.382Q69.89991416015626,88.9254,68.85771416015625,89.4184Q67.81551416015625,89.9113,66.75041416015625,90.3525Q65.68531416015625,90.7937,64.59981416015626,91.1821Q63.51431416015625,91.5704,62.41101416015625,91.9051Q61.30781416015625,92.2398,60.18941416015625,92.5199Q59.07111416015625,92.8,57.94031416015625,93.025Q56.80961416015625,93.2499,55.66921416015625,93.4191Q54.52881416015625,93.5882,53.38141416015625,93.7012Q52.23411416015625,93.8142,51.08261416015625,93.8708Q49.93111416015625,93.9274,48.77821416015625,93.9274Q47.62531416015625,93.9274,46.47381416015625,93.8708Q45.32231416015625,93.8142,44.17491416015625,93.7012Q43.02761416015625,93.5882,41.88721416015625,93.419Q40.74681416015625,93.2499,39.61601416015625,93.025Q38.48531416015625,92.8,37.36691416015625,92.5199Q36.24861416015625,92.2398,35.14531416015625,91.9051Q34.04211416015625,91.5705,32.95661416015625,91.1821Q31.87111416015625,90.7937,30.80601416015625,90.3525Q29.74081416015625,89.9113,28.69861416015625,89.4183Q27.65641416015625,88.9254,26.63971416015625,88.382Q25.62291416015625,87.8385,24.63401416015625,87.2458Q23.64521416015625,86.6531,22.68661416015625,86.0126Q21.72801416015625,85.372,20.80201416015625,84.6853Q19.87591416015625,83.9985,18.98471416015625,83.2671Q18.09351416015625,82.5357,17.239314160156248,81.7615Q16.38511416015625,80.9872,15.56981416015625,80.172Q14.75461416015625,79.3568,13.98041416015625,78.5026Q13.20621416015625,77.6483,12.47481416015625,76.7571Q11.74339416015625,75.8659,11.05661416015625,74.9399Q10.36983416015625,74.0139,9.72932416015625,73.0553Q9.08880416015625,72.0967,8.49610416015625,71.1078Q7.90339416015625,70.119,7.35992416015625,69.1022Q6.81645416015625,68.0854,6.32353416015625,67.0432Q5.83060416015625,66.001,5.3894141601562495,64.9359Q4.94821416015625,63.8708,4.55982416015625,62.7853Q4.17142416015625,61.6998,3.83675416015625,60.5965Q3.50208416015625,59.4933,3.2219541601562502,58.3749Q2.94182416015625,57.2566,2.71690716015625,56.1258Q2.4919891601562503,54.9951,2.32282416015625,53.8547Q2.15365916015625,52.7143,2.04065616015625,51.5669Q1.92765316015625,50.4196,1.87108296015625,49.2681Q1.81451316586725,48.1166,1.81451316586725,46.9637Q1.81451316586725,45.8108,1.87108296015625,44.6593Q1.92765316015625,43.5078,2.04065616015625,42.3604Q2.15365916015625,41.2131,2.32282416015625,40.0727Q2.4919891601562503,38.9323,2.71690716015625,37.8015Q2.94182416015625,36.6708,3.2219541601562502,35.5524Q3.50208416015625,34.4341,3.83675416015625,33.3308Q4.17142416015625,32.2276,4.55981416015625,31.1421Q4.94821416015625,30.0566,5.3894141601562495,28.9915Q5.83060416015625,27.9263,6.32353416015625,26.8841Q6.81645416015625,25.8419,7.35992416015625,24.8252Q7.90339416015625,23.8084,8.49610416015625,22.8195Q9.08880416015625,21.8307,9.72932416015625,20.8721Q10.36983416015625,19.9135,11.05661416015625,18.9874Q11.74339416015625,18.0614,12.47481416015625,17.1702Q13.20621416015625,16.279,13.98041416015625,15.4248Q14.75461416015625,14.5706,15.56981416015625,13.7553Q16.38511416015625,12.9401,17.239314160156248,12.1659Q18.09351416015625,11.3917,18.98471416015625,10.6603Q19.87591416015625,9.92888,20.80191416015625,9.2421Q21.72801416015625,8.55532,22.68661416015625,7.91481Q23.64521416015625,7.27429,24.63401416015625,6.68159Q25.62291416015625,6.08888,26.63971416015625,5.54541Q27.65641416015625,5.00194,28.69861416015625,4.50902Q29.74081416015625,4.01609,30.80601416015625,3.5749Q31.87111416015625,3.1337,32.95661416015625,2.74531Q34.04211416015625,2.35691,35.14531416015625,2.02224Q36.24861416015625,1.68757,37.36691416015625,1.40744Q38.48531416015625,1.12731,39.61601416015625,0.902394Q40.74681416015625,0.677476,41.88721416015625,0.508311Q43.02761416015625,0.339146,44.17491416015625,0.226143Q45.32231416015625,0.11314,46.47381416015625,0.0565698Q47.62531416015625,0,48.77821416015625,0Q49.93111416015625,0,51.08261416015625,0.0565698Q52.23411416015625,0.11314,53.38141416015625,0.226143Q54.52881416015625,0.339146,55.66921416015625,0.508311Q56.80961416015625,0.677476,57.94031416015625,0.902394Q59.07111416015625,1.12731,60.18941416015625,1.40744Q61.30781416015625,1.68757,62.41101416015625,2.02224Q63.51431416015625,2.35691,64.59981416015626,2.74531Q65.68531416015625,3.1337,66.75041416015625,3.5749Q67.81551416015625,4.01609,68.85771416015625,4.50902Q69.89991416015626,5.00194,70.91671416015625,5.54541Q71.93351416015625,6.08888,72.92231416015625,6.68159Q73.91121416015625,7.27429,74.86981416015625,7.91481Q75.82841416015626,8.55532,76.75441416015624,9.2421Q77.68041416015625,9.92888,78.57161416015624,10.6603Q79.46281416015626,11.3917,80.31711416015625,12.1659Q81.17131416015626,12.9401,81.98651416015625,13.7553Q82.80171416015625,14.5706,83.57601416015625,15.4248Q84.35021416015626,16.279,85.08161416015625,17.1702Q85.81301416015626,18.0614,86.49981416015625,18.9874Q87.18651416015625,19.9135,87.82711416015626,20.8721Q88.46761416015624,21.8307,89.06031416015625,22.8195Q89.65301416015625,23.8084,90.19651416015626,24.8252Q90.73991416015625,25.8419,91.23291416015626,26.8841Q91.72581416015625,27.9263,92.16701416015626,28.9915Q92.60821416015625,30.0566,92.99661416015626,31.1421Q93.38491416015626,32.2276,93.71961416015625,33.3308Q94.05431416015625,34.4341,94.33441416015626,35.5524Q94.61451416015625,36.6708,94.83951416015626,37.8015Q95.06441416015625,38.9323,95.23361416015625,40.0727Q95.40271416015625,41.2131,95.51571416015625,42.3604Q95.62871416015625,43.5078,95.68531416015625,44.6593Q95.74191416015626,45.8108,95.74191416015626,46.9637Z" fill="#D4FBFF" fill-opacity="1"/></g><g><path d="M67.89444326171875,37.51359627197266C67.60844326171875,36.449716271972655,67.12124326171875,35.45046627197266,66.45924326171875,34.56991627197266C65.71214326171875,33.581656271972655,64.79134326171875,32.737636271972654,63.741943261718745,32.07911627197266C61.94834326171875,30.942038271972656,59.73204326171875,30.267616271972656,57.34224326171875,30.267616271972656L49.95534326171875,30.267616271972656C47.565573261718754,30.267616271972656,45.34926326171875,30.942040271972655,43.55568326171875,32.07911627197266C42.50630326171875,32.737636271972654,41.58555326171875,33.581656271972655,40.83843326171875,34.56991627197266C40.17642326171875,35.450476271972654,39.68924526171875,36.449716271972655,39.40324726171875,37.51359627197266C39.22837186171875,38.178806271972654,39.13967734271875,38.86372627197265,39.13934326171875,39.551526271972655L39.13934326171875,51.907816271972656C40.29678326171875,53.591416271972655,41.02577326171875,55.92581627197266,41.02577326171875,58.52821627197265C41.02577326171875,58.867116271972655,41.01274326171875,59.201016271972655,40.98912326171875,59.53011627197266C41.45756326171875,59.29611627197266,41.93890326171875,59.08891627197266,42.43082326171875,58.90941627197266C46.06766326171875,57.58581627197266,49.72564326171875,57.945916271972656,51.802743261718746,59.59281627197265L49.82754326171875,62.828116271972654L53.42034326171875,64.03681627197265C52.88764326171875,66.63271627197265,50.31704326171875,69.26041627197266,46.68018326171875,70.58401627197266C46.24686326171875,70.74201627197266,45.81353326171875,70.87481627197266,45.38265326171875,70.98471627197266C45.49180326171875,71.09961627197265,45.60013326171875,71.21691627197265,45.70683326171875,71.33661627197266C46.84635326171875,72.61781627197266,47.66168326171875,74.02371627197266,48.17076326171875,75.41411627197266C48.75314326171875,75.49801627197266,49.34614326171875,75.55421627197265,49.95534326171875,75.55421627197265L57.34224326171875,75.55421627197265C60.44234326171875,75.55421627197265,63.24914326171875,74.41961627197266,65.22444326171875,72.61051627197266C66.01154326171874,71.89621627197266,66.67254326171874,71.05411627197265,67.17924326171875,70.11971627197266C67.66714326171875,69.20741627197265,67.98884326171876,68.21781627197265,68.10784326171876,67.17601627197266C68.13954326171876,66.87711627197265,68.15834326171876,66.57571627197265,68.15834326171876,66.27031627197266L68.15834326171876,39.550716271972654C68.15834326171876,38.851046271972656,68.06544326171876,38.17010627197266,67.89444326171875,37.51359627197266Z" fill="#FA759E" fill-opacity="1"/></g><g><path d="M59.0934771484375,55.016024908447264L60.8406771484375,55.489324908447266C60.9465771484375,55.51782490844727,61.3383771484375,55.63672490844726,61.482477148437496,55.59682490844727C63.953777148437496,54.910124908447266,65.8075771484375,53.38622490844727,66.3060771484375,51.81822490844726Q64.1418771484375,51.261124908447265,64.06287714843751,51.294524908447265L62.3124771484375,52.039824908447265C62.1658771484375,52.102524908447265,61.996177148437496,52.034224908447264,61.9337771484375,51.887424908447265C61.870977148437504,51.740824908447266,61.9392771484375,51.57112490844727,62.0860771484375,51.50872490844726L63.836477148437496,50.76342490844726C63.856877148437505,50.75495490844727,63.8781771484375,50.74867490844726,63.8999771484375,50.744694908447265C64.0930771484375,50.71211490844726,64.2779771484375,50.64451490844726,64.4041771484375,50.495454908447265L65.5615771484375,49.137644908447264C64.3259771484375,48.05188490844726,61.952477148437495,47.701644908447264,59.4803771484375,48.38828490844727C59.0519771484375,48.507204908447264,58.6251771484375,48.65870490844726,58.2072771484375,48.83301490844727C58.0158771484375,48.912834908447266,57.8904771484375,49.083074908447266,57.794377148437505,49.26715490844727C57.7835771484375,49.28761490844727,57.7704771484375,49.30675490844727,57.7552771484375,49.324164908447266L56.3705771484375,50.897004908447265C56.2657771484375,51.01767490844726,56.0825771484375,51.02940490844726,55.9632771484375,50.92307490844726C55.8434771484375,50.817874908447266,55.8318771484375,50.635434908447266,55.9372771484375,50.51581490844727L57.3218771484375,48.94297490844727C57.3935771484375,48.861524908447265,57.8325771484375,47.45483490844727,57.8325771484375,46.761684908447265C57.8342771484375,44.19675490844727,56.7346771484375,42.002436908447265,55.1772771484375,41.10157483844726L54.0336771484375,42.59622490844727C53.9206771484375,42.752864908447265,53.8695771484375,42.94581490844727,53.8903771484375,43.137874908447266L53.8911771484375,43.15742490844727L53.9082771484375,45.177444908447264C53.9095771484375,45.33713490844727,53.781277148437496,45.467694908447264,53.6215771484375,45.46903490844726L53.6190771484375,45.46903490844726C53.4603771484375,45.469044908447266,53.3312771484375,45.341064908447265,53.3299771484375,45.182324908447264L53.3128771484375,43.162314908447264C53.3129771484375,43.15062490844726,53.3134771484375,43.138944908447264,53.314477148437504,43.127284908447265C53.337777148437496,42.93809490844727,53.2862771484375,42.74728490844726,53.171077148437504,42.595404908447264L52.0291771484375,41.099124908447266C50.4709871484375,41.998355908447266,49.368937148437496,44.19104490844727,49.3681171484375,46.755974908447264C49.3681171484375,47.19011490844726,49.4015171484375,47.630774908447265,49.4617871484375,48.06898490844726C49.4894871484375,48.26854490844727,49.6198071484375,48.42656490844727,49.7713071484375,48.55933490844727C49.7875971484375,48.57399490844727,49.8030771484375,48.59109490844727,49.816107148437496,48.60983490844727L50.8700971484375,50.10529490844726C50.962087148437504,50.23575490844726,50.9309171484375,50.416074908447264,50.8004571484375,50.50807490844727C50.6700071484375,50.600064908447266,50.4896771484375,50.56888490844727,50.3976771484375,50.43843490844726L49.343687148437496,48.94297490844727C49.2825971484375,48.85663490844726,48.3849871484375,48.28076490844727,47.9084971484375,48.147184908447265C45.437237148437504,47.458094908447265,43.0466171484375,47.86617490844726,41.7857361484375,49.036644908447265L42.9276971484375,50.462864908447266C43.0474371484375,50.611924908447264,43.2209271484375,50.704784908447266,43.4098971484375,50.73084490844727C43.4098971484375,50.73084490844727,43.4408471484375,50.73655490844727,43.4408471484375,50.73655490844727L45.3232071484375,51.20732490844726C45.4781871484375,51.24582490844726,45.5725371484375,51.402824908447265,45.5337971484375,51.55772490844727C45.4950671484375,51.71262490844727,45.3379671484375,51.806724908447265,45.1831071484375,51.76772490844726L43.3007471484375,51.29692490844727C43.2772071484375,51.291524908447265,43.2546671484375,51.282524908447265,43.2339571484375,51.27002490844727C43.0726771484375,51.179624908447266,42.8714871484375,51.19922490844726,42.6979971484375,51.263524908447266L40.9915771484375,51.891524908447266C41.4640001484375,53.545824908447265,43.2991171484375,55.132524908447266,45.7695571484375,55.82162490844726C45.9015171484375,55.85822490844727,46.2574571484375,55.744224908447265,46.354387148437496,55.710824908447265L48.3882471484375,55.015224908447266C48.5361871484375,54.97332490844727,48.6910271484375,55.05452490844726,48.7406871484375,55.20002490844726C48.7903371484375,55.34552490844727,48.7174471484375,55.504524908447266,48.5747771484375,55.561824908447264L46.5409171484375,56.25742490844726C46.5107571484375,56.26762490844727,46.4791071484375,56.272924908447266,46.4472371484375,56.27282490844726C46.3739371484375,56.27282490844726,46.0815271484375,56.368124908447264,46.0025171484375,56.45942490844727C45.5217671484375,57.01422490844727,45.1169271484375,57.63052490844727,44.7986471484375,58.29202490844727C47.5883871484375,57.81802490844727,50.179377148437496,58.30512490844727,51.802677148437496,59.591224908447266L49.8275071484375,62.82652490844727L51.2553771484375,63.30702490844726C51.6992771484375,62.969824908447265,52.1268771484375,62.580524908447266,52.518677148437504,62.12922490844727C52.9527771484375,61.630824908447266,53.5180771484375,60.34062490844727,53.5172771484375,60.23382490844726L53.4952771484375,58.017524908447264C53.4934771484375,57.85802490844726,53.6216771484375,57.727324908447265,53.7811771484375,57.72592490844727C53.9359771484375,57.717024908447264,54.0711771484375,57.85302490844727,54.0727771484375,58.01182490844727L54.0947771484375,60.22812490844727C54.0955771484375,60.33652490844727,54.6494771484375,61.598224908447264,55.0729771484375,62.08532490844726C56.754977148437504,64.02222490844727,59.0275771484375,64.95402490844727,60.7982771484375,64.60702490844727Q60.556377148437505,62.50552490844727,60.4993771484375,62.44612490844727L59.0511771484375,60.77552490844727C58.9522771484375,60.659024908447265,58.9609771484375,60.48572490844727,59.0711771484375,60.37982490844726C59.181377148437505,60.27392490844727,59.3549771484375,60.27212490844727,59.4673771484375,60.375624908447264L60.849577148437504,61.81652490844726C60.865877148437505,61.83362490844726,60.8797771484375,61.852324908447265,60.8911771484375,61.87272490844727C60.9799771484375,62.032324908447265,61.1574771484375,62.12192490844727,61.3366771484375,62.158624908447266L63.184077148437495,62.534924908447266C63.7753771484375,60.83012490844727,63.1709771484375,58.44922490844726,61.4889771484375,56.51232490844727C61.3252771484375,56.32332490844726,60.8422771484375,56.055424908447264,60.7640771484375,56.055424908447264C60.7384771484375,56.055424908447264,60.7129771484375,56.05192490844726,60.688377148437496,56.04482490844727L58.941177148437504,55.571524908447266C58.7871771484375,55.52982490844727,58.6963771484375,55.371124908447264,58.7383771484375,55.217224908447264C58.7822771484375,55.06472490844727,58.940077148437496,54.97532490844726,59.0934771484375,55.016024908447264ZM58.1193771484375,53.433424908447265C57.9802771484375,53.432624908447266,57.8438771484375,53.395524908447264,57.723477148437496,53.32592490844726L54.7162771484375,54.069524908447264L56.5138771484375,56.548124908447264C56.9347771484375,56.62812490844726,57.220877148437495,57.021624908447265,57.1672771484375,57.44662490844726C57.1137771484375,57.87162490844727,56.738877148437496,58.181724908447265,56.3113771484375,58.15482490844727C55.8838771484375,58.127824908447266,55.5509771484375,57.773124908447265,55.5511771484375,57.34472490844726C55.5511771484375,57.309724908447265,55.5568771484375,57.276324908447265,55.5617771484375,57.242924908447264L53.7200771484375,54.70322490844727L51.8149771484375,57.26492490844727C51.8173771484375,57.29102490844727,51.8230771484375,57.31622490844727,51.8230771484375,57.343124908447265C51.8230771484375,57.791924908447264,51.4589771484375,58.155624908447265,51.0101771484375,58.155224908447266C50.9881971484375,58.155224908447266,50.9670271484375,58.15032490844727,50.945027148437504,58.148724908447264C50.9108171484375,58.155224908447266,50.8790571484375,58.172324908447266,50.8440371484375,58.172324908447266C50.548827148437496,58.17112490844727,50.2999771484375,57.951824908447264,50.261647148437504,57.65912490844727C50.0573871484375,57.17412490844727,50.3624371484375,56.62602490844726,50.8823171484375,56.544124908447266L52.7288771484375,54.06062490844727L49.5212571484375,53.23552490844727C49.2808871484375,53.44122490844727,48.9425771484375,53.48772490844726,48.6556271484375,53.35452490844727C48.3686671484375,53.221324908447265,48.1858571484375,52.932824908447266,48.1878771484375,52.616424908447264C48.1878771484375,52.167624908447266,48.5519771484375,51.80442490844727,49.000767148437504,51.80442490844727C49.2166171484375,51.80442490844727,49.4112871484375,51.88992490844727,49.5562771484375,52.02752490844726L53.1295771484375,52.947124908447265L53.1051771484375,49.85849490844727C52.7064771484375,49.44342490844727,52.8540771484375,48.756764908447266,53.3881771484375,48.54231490844727C53.9222771484375,48.32786490844727,54.503877148437496,48.72173490844727,54.5028771484375,49.29728490844727C54.502577148437496,49.50202490844727,54.4242771484375,49.698964908447266,54.2837771484375,49.84790490844726L54.3081771484375,52.95692490844726L57.4367771484375,52.18312490844727C57.7697771484375,51.66362490844727,58.5375771484375,51.69062490844726,58.8332771484375,52.232224908447265C59.128877148437496,52.77382490844727,58.7363771484375,53.434324908447266,58.1193771484375,53.433424908447265Z" fill="#FFFFFF" fill-opacity="1"/></g><g><path d="M85.04073447265625,10.259713358154297C84.81593447265625,9.412609358154297,83.94683447265625,8.908420358154297,82.81063447265625,9.133228058154296L52.17319847265625,17.264593358154297C51.61525047265625,17.4894033581543,51.11024747265625,18.358503358154294,51.33505617265625,19.2056233581543C51.55986447265625,20.052723358154296,52.42895447265625,20.556923358154297,52.98772447265625,20.3321233581543L83.62513447265624,12.200713358154296C84.76143447265625,11.975913358154298,85.26563447265625,11.106813358154296,85.04073447265625,10.259713358154297Z" fill="#6DC9F7" fill-opacity="1"/></g><g><path d="M53.42026884765625,64.03682144775391L49.82746884765625,62.82812144775391L51.80266884765625,59.592841447753905C49.72566884765625,57.94587144775391,46.06756884765625,57.585861447753906,42.43076884765625,58.90945144775391C41.92816884765625,59.09191144775391,41.447668847656246,59.30124144775391,40.98906884765625,59.530121447753906C41.01266884765625,59.20106144775391,41.02576884765625,58.86710144775391,41.02576884765625,58.528261447753906C41.02576884765625,54.658471447753904,39.43576884765625,51.34336144775391,37.17876884765625,49.955421447753906L34.81416884765625,52.91865144775391L32.44966884765625,49.955421447753906C30.19176884765625,51.34336144775391,28.60266884765625,54.658471447753904,28.60266884765625,58.528261447753906C28.60266884765625,58.86710144775391,28.615668847656252,59.20106144775391,28.63926884765625,59.530121447753906C28.17086884765625,59.29613144775391,27.68946884765625,59.088901447753905,27.19756884765625,58.90945144775391C23.56075884765625,57.585861447753906,19.90273884765625,57.945881447753905,17.82570884765625,59.592841447753905L19.80092884765625,62.82812144775391L16.20806884765625,64.03682144775391C16.74076484765625,66.63272144775391,19.31139884765625,69.26042144775391,22.94823884765625,70.58402144775391C23.38155884765625,70.7420214477539,23.81488884765625,70.8748214477539,24.24576884765625,70.98472144775391C24.13662884765625,71.0996214477539,24.02828884765625,71.2169214477539,23.92158884765625,71.33662144775391C21.34851884765625,74.22732144775391,20.33280884765625,77.76072144775391,21.09601884765625,80.29882144775391L24.83222884765625,79.65772144775391L24.62859884765625,83.44282144775391C27.23836884765625,83.9063214477539,30.62916884765625,82.4874214477539,33.20226884765625,79.5958214477539C33.813268847656246,78.9107214477539,34.35336884765625,78.16542144775391,34.81416884765625,77.3714214477539C35.27476884765625,78.1656214477539,35.81486884765625,78.9109214477539,36.42616884765625,79.5958214477539C38.99916884765625,82.4866214477539,42.39006884765625,83.9063214477539,44.99976884765625,83.44282144775391L44.79616884765625,79.65772144775391L48.53236884765625,80.29882144775391C49.29556884765625,77.76072144775391,48.27986884765625,74.2281214477539,45.70676884765625,71.33662144775391C45.60086884765625,71.2174214477539,45.49276884765625,71.1001214477539,45.382568847656245,70.98472144775391C45.82126884765625,70.8721214477539,46.25436884765625,70.7383214477539,46.68016884765625,70.58402144775391C50.31696884765625,69.26042144775391,52.88756884765625,66.63272144775391,53.42026884765625,64.03682144775391Z" fill="#FFD7E5" fill-opacity="1"/></g><g><path d="M41.78576025390625,65.48670534423829C41.62556025390625,64.88805534423828,41.01016025390625,64.53277534423827,40.41166025390625,64.69336534423829C40.13546025390625,64.76774534423828,39.89846025390625,64.94531534423828,39.74946025390625,65.18940534423828L35.62959025390625,66.29389534423828L35.62959025390625,61.714665344238284C35.81857025390625,61.51347534423828,35.93667025390625,61.244685344238285,35.93667025390625,60.94657534423828C35.93667025390625,60.32668334423828,35.43415025390625,59.82416534423828,34.81426025390625,59.82416534423828C34.19437025390625,59.82416534423828,33.69185025390625,60.32668334423828,33.69185025390625,60.94657534423828C33.69185025390625,61.244685344238285,33.80995025390625,61.51347534423828,33.99974025390625,61.714665344238284L33.99974025390625,66.29308534423828L29.87907025390625,65.18859534423828C29.73005025390625,64.94450534423828,29.49301025390625,64.76693534423828,29.21687025390625,64.69255534423829C28.61834225390625,64.53217534423828,28.00313825390625,64.88736534423828,27.84276705390625,65.48588534423828C27.68239625390625,66.08441534423828,28.03759025390625,66.69962534423829,28.63611225390625,66.85998534423828C28.92364025390625,66.93736534423829,29.21442025390625,66.89256534423828,29.45796025390625,66.76143534423828L33.43853025390625,67.82845534423828L30.95750025390625,71.12566534423829C30.68708025390625,71.17286534423828,30.43213025390625,71.31296534423828,30.25375025390625,71.54996534423827C29.89935025390625,72.04566534423829,30.00518025390625,72.73356534423829,30.49219025390625,73.09986534423828C30.97919025390625,73.46606534423827,31.66945025390625,73.37686534423828,32.04733025390625,72.89886534423829C32.22571025390625,72.66186534423828,32.289250253906246,72.37756534423828,32.25992025390625,72.10386534423829L34.81508025390625,68.70813534423829L37.37023025390625,72.10466534423828C37.34091025390625,72.37756534423828,37.40445025390625,72.66186534423828,37.58282025390625,72.89886534423829C37.96066025390625,73.37686534423828,38.65096025390625,73.46606534423827,39.13796025390625,73.09986534423828C39.62496025390625,72.73356534423829,39.730760253906254,72.04566534423829,39.37636025390625,71.54996534423827C39.20446025390625,71.32406534423828,38.95276025390625,71.17226534423828,38.67266025390625,71.12566534423829L36.19162025390625,67.82763534423827L40.17136025390625,66.76142534423828C40.41496025390625,66.89256534423828,40.70486025390625,66.93735534423828,40.99326025390625,66.85998534423828C41.59116025390625,66.69940534423829,41.94586025390625,66.08473534423828,41.78576025390625,65.48670534423829Z" fill="#FA759E" fill-opacity="1"/></g><g><path d="M36.4432706640625,67.35441231445313Q36.4432706640625,67.43444231445312,36.4354206640625,67.51409231445312Q36.4275806640625,67.59373231445312,36.4119606640625,67.67222231445312Q36.3963506640625,67.75072231445313,36.3731206640625,67.82730231445312Q36.3498906640625,67.90388231445313,36.3192606640625,67.97782231445312Q36.2886406640625,68.05176231445313,36.2509106640625,68.12234231445312Q36.2131906640625,68.19292231445313,36.1687206640625,68.25946231445313Q36.1242606640625,68.32600231445312,36.0734906640625,68.38787231445312Q36.0227206640625,68.44973231445313,35.9661306640625,68.50632231445313Q35.9095406640625,68.56291231445313,35.8476806640625,68.61368231445313Q35.7858106640625,68.66445231445313,35.7192706640625,68.70891231445313Q35.6527306640625,68.75337231445313,35.5821506640625,68.79110231445313Q35.5115706640625,68.82883231445312,35.4376306640625,68.85945231445312Q35.3636906640625,68.89008231445312,35.2871106640625,68.91331231445312Q35.2105306640625,68.93654231445312,35.1320306640625,68.95215231445313Q35.0535406640625,68.96777231445313,34.9739006640625,68.97561231445313Q34.8942506640625,68.98346231445312,34.8142206640625,68.98346231445312Q34.7341906640625,68.98346231445312,34.6545506640625,68.97561231445313Q34.5749006640625,68.96777231445313,34.4964106640625,68.95215231445313Q34.4179206640625,68.93654231445312,34.3413406640625,68.91331231445312Q34.2647506640625,68.89008231445312,34.1908206640625,68.85945231445312Q34.1168776640625,68.82883231445312,34.0462976640625,68.79110231445313Q33.9757186640625,68.75337231445313,33.9091756640625,68.70891231445313Q33.8426336640625,68.66445231445313,33.7807696640625,68.61368231445313Q33.7189056640625,68.56291231445313,33.6623166640625,68.50632231445313Q33.6057266640625,68.44973231445313,33.5549566640625,68.38787231445312Q33.5041856640625,68.32600231445312,33.4597236640625,68.25946231445313Q33.4152616640625,68.19292231445313,33.3775356640625,68.12234231445312Q33.3398106640625,68.05176231445313,33.3091846640625,67.97782231445312Q33.2785581640625,67.90388231445313,33.2553266640625,67.82730231445312Q33.2320952640625,67.75072231445313,33.2164822640625,67.67222231445312Q33.2008692640625,67.59373231445312,33.1930249540625,67.51409231445312Q33.1851806640625,67.43444231445312,33.1851806640625,67.35441231445313Q33.1851806640625,67.27438231445312,33.1930249540625,67.19474231445312Q33.2008692640625,67.11509231445312,33.2164822640625,67.03660231445312Q33.2320952640625,66.95811231445313,33.2553266640625,66.88153231445312Q33.2785581640625,66.80494231445313,33.3091846640625,66.73101231445312Q33.3398106640625,66.65706931445312,33.3775356640625,66.58648931445312Q33.4152616640625,66.51591031445312,33.4597236640625,66.44936731445313Q33.5041856640625,66.38282531445313,33.5549566640625,66.32096131445313Q33.6057266640625,66.25909731445313,33.6623166640625,66.20250831445313Q33.7189056640625,66.14591831445313,33.7807696640625,66.09514831445313Q33.8426336640625,66.04437731445313,33.9091756640625,65.99991531445312Q33.9757186640625,65.95545331445312,34.0462976640625,65.91772731445313Q34.1168776640625,65.88000231445312,34.1908206640625,65.84937631445312Q34.2647506640625,65.81874971445312,34.3413406640625,65.79551831445312Q34.4179206640625,65.77228691445312,34.4964106640625,65.75667391445313Q34.5749006640625,65.74106091445313,34.6545506640625,65.73321660445312Q34.7341906640625,65.72537231445312,34.8142206640625,65.72537231445312Q34.8942506640625,65.72537231445312,34.9739006640625,65.73321660445312Q35.0535406640625,65.74106091445313,35.1320306640625,65.75667391445313Q35.2105306640625,65.77228691445312,35.2871106640625,65.79551831445312Q35.3636906640625,65.81874971445312,35.4376306640625,65.84937631445312Q35.5115706640625,65.88000231445312,35.5821506640625,65.91772731445313Q35.6527306640625,65.95545331445312,35.7192706640625,65.99991531445312Q35.7858106640625,66.04437731445313,35.8476806640625,66.09514831445313Q35.9095406640625,66.14591831445313,35.9661306640625,66.20250831445313Q36.0227206640625,66.25909731445313,36.0734906640625,66.32096131445313Q36.1242606640625,66.38282531445313,36.1687206640625,66.44936731445313Q36.2131906640625,66.51591031445312,36.2509106640625,66.58648931445312Q36.2886406640625,66.65706931445312,36.3192606640625,66.73101231445312Q36.3498906640625,66.80494231445313,36.3731206640625,66.88153231445312Q36.3963506640625,66.95811231445313,36.4119606640625,67.03660231445312Q36.4275806640625,67.11509231445312,36.4354206640625,67.19474231445312Q36.4432706640625,67.27438231445312,36.4432706640625,67.35441231445313Z" fill="#FA759E" fill-opacity="1"/></g><g><path d="M32.370733300781254,15.913299560546875L33.27073330078125,19.574569560546877C33.939433300781246,22.293349560546876,36.06223330078125,24.416119560546875,38.78093330078125,25.084809560546873L42.442233300781254,25.984899560546875L38.78093330078125,26.884899560546877C36.06223330078125,27.553599560546875,33.939433300781246,29.676399560546876,33.27073330078125,32.395099560546875L32.370733300781254,36.05639956054688L31.470643300781248,32.395099560546875C30.80195330078125,29.676399560546876,28.67918330078125,27.553599560546875,25.960403300781252,26.884899560546877L22.29913330078125,25.984899560546875L25.960403300781252,25.084809560546873C28.67918330078125,24.416119560546875,30.80195330078125,22.293349560546876,31.470643300781248,19.574569560546877L32.370733300781254,15.913299560546875Z" fill="#0089EF" fill-opacity="1"/></g><g><path d="M71.6753502734375,70.74526977539062L72.2699502734375,73.16276977539063C72.7114002734375,74.95805977539062,74.1131302734375,76.35978977539062,75.9083802734375,76.80123977539063L78.3258802734375,77.39583977539063L75.9083802734375,77.99043977539063C74.1131302734375,78.43188977539063,72.7114002734375,79.83360977539063,72.2699502734375,81.62886977539063L71.6753502734375,84.04636977539063L71.0807502734375,81.62886977539063C70.6393002734375,79.83360977539063,69.2375702734375,78.43188977539063,67.4422802734375,77.99043977539063L65.0247802734375,77.39583977539063L67.4422802734375,76.80123977539063C69.2375702734375,76.35978977539062,70.6393002734375,74.95805977539062,71.0807502734375,73.16276977539063L71.6753502734375,70.74526977539062Z" fill="#6DC9F7" fill-opacity="1"/></g><g><path d="M80.6081,13.842843579101563L83.7839,12.999743579101562C84.565,12.845043579101562,85.1987,12.435343579101563,85.5669,11.844743579101563C85.9003,11.309213579101563,85.9951,10.658813579101562,85.8283,10.050383579101563C85.4789,8.738183579101563,84.1733,8.032813579101562,82.6525,8.334183579101563L75.9107,10.122873579101563C68.1972,4.777983579101562,58.8522,1.6290435791015625,48.7782,1.6290435791015625C29.3869,1.6290435791015625,12.0571,13.202543579101562,4.62707,31.113943579101562C4.47536,31.524643579101564,4.675190000000001,31.981943579101564,5.0797,32.149643579101564C5.48421,32.31724357910156,5.94893,32.13544357910156,6.1323,31.73784357910156C13.3082,14.436543579101562,30.0483,3.2580835791015623,48.7782,3.2580835791015623C57.6702,3.2504135791015623,66.3727,5.827883579101562,73.8264,10.676753579101563L51.9638,16.477743579101563L51.8685,16.50954357910156C50.9554,16.877743579101562,50.2077,18.13284357910156,50.5482,19.414943579101564C50.7188,20.03354357910156,51.1222,20.562143579101562,51.6738,20.89004357910156L49.3924,26.871043579101563L48.4312,26.871043579101563C47.9287,26.871043579101563,47.5206,27.278343579101563,47.5206,27.781743579101562L47.5206,29.68284357910156C45.9578,29.96644357910156,44.4637,30.546543579101563,43.1189,31.39164357910156C41.9525,32.13204357910156,40.9653,33.03784357910156,40.1842,34.08444357910156C39.459,35.048443579101566,38.9262,36.14294357910156,38.6146,37.30834357910156C38.4229,38.040743579101566,38.3255,38.794543579101564,38.3246,39.55154357910156L38.3246,49.79574357910156C38.0973,49.60154357910156,37.857,49.42294357910156,37.6054,49.26144357910156C37.2544,49.046943579101566,36.7987,49.12684357910156,36.5417,49.44794357910156L34.814,51.61294357910156L33.0856,49.447143579101564C32.8283,49.126343579101565,32.372699999999995,49.046743579101566,32.0219,49.26144357910156C29.5058,50.80904357910156,27.8605,54.32204357910156,27.7896,58.26274357910156C27.6854,58.222043579101566,27.5803,58.18204357910156,27.4752,58.14384357910156C23.6738,56.75994357910156,19.6859,57.07764357910156,17.3189,58.95344357910156C16.996499999999997,59.209143579101564,16.915399999999998,59.66524357910156,17.13,60.016343579101566L18.5733,62.38094357910156L15.9473,63.26384357910156C15.5571,63.39504357910156,15.3261,63.79654357910156,15.4089,64.19974357910156C16.015700000000002,67.15814357910156,18.8657,69.96494357910156,22.6687,71.34884357910157L22.8047,71.39774357910156C20.4768,74.31444357910156,19.5027,77.82994357910157,20.3156,80.53254357910156C20.4324,80.92754357910157,20.8271,81.17184357910156,21.2327,81.10024357910156L23.963,80.63194357910156L23.8148,83.39804357910157C23.7928,83.80894357910157,24.0808,84.17164357910156,24.4859,84.24354357910157C24.8606,84.31034357910156,25.2467,84.34284357910157,25.6401,84.34284357910157C28.3671,84.34284357910157,31.459,82.77824357910156,33.8097,80.13584357910156C34.1674,79.73484357910156,34.5024,79.31414357910157,34.8132,78.87584357910156C35.1211,79.31074357910157,35.4567,79.73184357910156,35.8159,80.13504357910156C38.5063,83.15854357910156,42.1684,84.77214357910157,45.1397,84.24264357910157C45.5449,84.17084357910156,45.8329,83.80814357910157,45.8109,83.39724357910156L45.6627,80.63114357910156L48.3929,81.09944357910156C48.7986,81.17104357910156,49.1933,80.92674357910157,49.3101,80.53174357910156C49.543,79.75874357910156,49.6131,78.91574357910156,49.5634,78.04334357910156L58.4222,78.04334357910156C59.1699,78.04334357910156,59.7767,77.43654357910157,59.7767,76.68884357910156L59.7767,76.13574357910156C62.046,75.70814357910156,64.1531,74.69574357910156,65.7748,73.21004357910157C66.6303,72.43394357910157,67.348,71.51844357910156,67.8975,70.50254357910157C68.4406,69.49564357910157,68.7872,68.39464357910157,68.9189,67.25824357910156C68.9523,66.93164357910156,68.9726,66.60264357910157,68.9726,66.26864357910156L68.9726,39.550743579101564C68.9726,38.79894357910156,68.8749,38.04384357910156,68.6819,37.305043579101564C68.3697,36.140043579101565,67.8365,35.045843579101565,67.1115,34.082043579101565C66.3303,33.03614357910156,65.3431,32.130443579101566,64.1776,31.390843579101563C62.8328,30.54584357910156,61.3387,29.966043579101562,59.7759,29.68284357910156L59.7759,27.781743579101562C59.7759,27.27914357910156,59.3686,26.871043579101563,58.8652,26.871043579101563L57.8691,26.871043579101563L55.195,20.589443579101562L78.7208,14.343743579101563C88.6262,22.814743579101563,94.9266,35.38284357910156,94.9266,49.40724357910156C94.9266,74.85374357910156,74.2239,95.55644357910157,48.7774,95.55644357910157C23.3309,95.55644357910157,2.62904,74.85374357910156,2.62904,49.40724357910156C2.62904,48.957443579101565,2.26437,48.592743579101565,1.814522,48.592743579101565C1.364674,48.592743579101565,1,48.957443579101565,1,49.40724357910156C1,75.75214357910156,22.4333,97.18544357910156,48.7782,97.18544357910156C75.1239,97.18544357910156,96.5564,75.75214357910156,96.5564,49.40724357910156C96.5564,35.28584357910156,90.3799,22.597243579101562,80.6081,13.842843579101563ZM52.1226,18.99704357910156C52.0062,18.560543579101562,52.2807,18.134543579101564,52.4501,18.034343579101563L52.9478,17.90234357910156C52.8266,17.993043579101563,52.7332,18.11574357910156,52.6781,18.256643579101564L52.2807,19.299243579101564C52.2077,19.21054357910156,52.1539,19.107643579101563,52.1226,18.99704357910156ZM47.9059,79.36454357910156L45.2147,78.90274357910157L43.7151,77.21664357910156C43.4164,76.87974357910156,42.9009,76.84914357910156,42.5644,77.14834357910156C42.2278,77.44754357910156,42.1979,77.96294357910156,42.4974,78.29914357910157L43.997,79.98524357910156L44.1436,82.71144357910157C41.8531,82.77984357910157,39.0992,81.37484357910157,37.0336,79.05344357910157C36.5058,78.45844357910157,36.0351,77.81514357910156,35.6278,77.13194357910156L35.6278,74.83094357910156C35.6278,74.38104357910156,35.2631,74.01644357910156,34.8132,74.01644357910156C34.3634,74.01644357910156,33.9987,74.38104357910156,33.9987,74.83094357910156L33.9987,77.13194357910156C33.5909,77.81504357910157,33.1202,78.45854357910156,32.5928,79.05424357910157C30.5272,81.37644357910156,27.766,82.79774357910156,25.4829,82.71224357910157L25.6295,79.98604357910156L27.129,78.29994357910157C27.428,77.96374357910156,27.3977,77.44874357910156,27.0614,77.14984357910156C26.7252,76.85094357910157,26.2103,76.88124357910156,25.9113,77.21744357910156L24.4118,78.90354357910157L21.7206,79.36534357910156C21.3924,77.10994357910157,22.4618,74.20124357910156,24.5283,71.87904357910156C24.5796,71.82124357910156,24.6325,71.76584357910156,24.6847,71.70964357910157L26.9091,71.10284357910156C27.3429,70.98424357910156,27.5986,70.53664357910156,27.4803,70.10284357910156C27.3621,69.66894357910157,26.9146,69.41294357910157,26.4807,69.53084357910156L24.2562,70.13764357910156C23.9082,70.04584357910156,23.5642,69.93964357910156,23.225,69.81914357910156C20.305,68.75624357910156,17.982,66.70364357910157,17.2008,64.56224357910156L19.7894,63.69154357910156L21.9096,64.46284357910156C22.3322,64.61674357910155,22.7995,64.39884357910157,22.9534,63.97624357910156C23.1072,63.553543579101564,22.8893,63.08624357910156,22.4667,62.93234357910156L20.3465,62.16024357910156L18.9235,59.82984357910156C20.8979,58.69194357910156,23.9964,58.611343579101565,26.9181,59.67594357910156C27.3302,59.825843579101566,27.7424,60.004143579101566,28.1472,60.20044357910156L29.8561,61.90854357910156C30.1758,62.21954357910156,30.6861,62.216043579101566,31.0014,61.90044357910156C31.3166,61.58494357910156,31.3199,61.07464357910156,31.0086,60.75514357910156L29.4406,59.18804357910156C29.4292,58.96894357910156,29.4162,58.75064357910156,29.4162,58.52824357910156C29.4162,55.42004357910156,30.5508,52.53584357910156,32.295500000000004,51.06884357910156L33.9987,53.20374357910156L33.9987,55.45994357910156C33.9987,55.90984357910156,34.3634,56.274443579101565,34.8132,56.274443579101565C35.2631,56.274443579101565,35.6278,55.90984357910156,35.6278,55.45994357910156L35.6278,53.20374357910156L37.3309,51.06974357910156C39.0756,52.53584357910156,40.2103,55.420843579101565,40.2103,58.52904357910156C40.2103,58.74904357910156,40.1972,58.96404357910156,40.1866,59.179843579101565L38.6146,60.750243579101564C38.2957,61.06844357910156,38.2954,61.585043579101566,38.6138,61.90364357910156C38.9322,62.22234357910156,39.4487,62.22234357910156,39.7672,61.90364357910156L41.4622,60.210243579101565C41.8682,60.01064357910156,42.2845,59.83254357910156,42.7092,59.67674357910156C45.6285,58.61464357910156,48.7285,58.69364357910156,50.7037,59.83154357910156L49.2808,62.161843579101564L47.1606,62.93404357910156C46.7466,63.09384357910156,46.5367,63.55554357910156,46.6885,63.97254357910156C46.8403,64.38954357910157,47.2979,64.60824357910155,47.7177,64.46454357910156L49.8379,63.693143579101566L52.4264,64.56384357910156C51.6453,66.70524357910156,49.3231,68.75784357910156,46.4023,69.82084357910156C46.0675,69.94294357910157,45.7189,70.04484357910157,45.3702,70.13924357910156L43.1458,69.53244357910157C42.7117,69.41414357910156,42.2639,69.67014357910156,42.1456,70.10424357910156C42.0272,70.53834357910156,42.2832,70.98614357910157,42.7174,71.10444357910156L44.9426,71.71134357910157C44.9948,71.76754357910156,45.0477,71.82284357910156,45.0982,71.88074357910156C47.1646,74.20044357910156,48.2341,77.10914357910156,47.9059,79.36454357910156ZM65.805,35.05534357910156C66.4049,35.85184357910156,66.8465,36.756043579101565,67.1058,37.71884357910156C67.2638,38.32164357910156,67.3436,38.93824357910156,67.3436,39.550743579101564L67.3436,66.26944357910156C67.3436,66.54724357910156,67.3265,66.82004357910157,67.2988,67.08314357910156C67.1896,68.01184357910157,66.9055,68.91154357910156,66.4615,69.73444357910157C65.9983,70.58814357910157,65.3941,71.35724357910156,64.67439999999999,72.00944357910156C62.7807,73.74354357910157,60.1082,74.73884357910157,57.3421,74.73884357910157L49.9552,74.73884357910157C49.5545,74.73884357910157,49.157,74.71194357910156,48.7627,74.67044357910156C48.2723,73.49424357910156,47.6195,72.39264357910156,46.8234,71.39774357910156L46.9594,71.34884357910157C50.7632,69.96414357910156,53.6124,67.15814357910156,54.2192,64.19894357910155C54.3023,63.79594357910156,54.0711,63.394343579101566,53.6808,63.26384357910156L51.0556,62.38094357910156L52.4998,60.01644357910156C52.7144,59.66524357910156,52.6333,59.209143579101564,52.3108,58.95344357910156C49.9446,57.07764357910156,45.9567,56.75914357910156,42.1545,58.143043579101565C42.0494,58.18124357910156,41.9444,58.22124357910156,41.8393,58.26194357910156C41.7945,55.74504357910156,41.1013,53.40984357910156,39.9553,51.64234357910156L39.9553,39.550743579101564C39.9553,38.93824357910156,40.0351,38.32164357910156,40.1923,37.72044357910156C40.4512,36.757343579101565,40.8925,35.85294357910156,41.4923,35.056143579101565C42.1537,34.17004357910156,42.9951,33.39944357910156,43.9929,32.76574357910157C45.7319,31.663743579101563,47.7943,31.081343579101564,49.9568,31.081343579101564L57.3437,31.081343579101564C59.5063,31.081343579101564,61.5687,31.663743579101563,63.3068,32.76574357910157C64.303,33.39944357910156,65.1444,34.16994357910156,65.805,35.05534357910156ZM56.0991,26.871043579101563L51.1354,26.871043579101563L53.3444,21.08064357910156L53.6043,21.011443579101563L56.0991,26.871043579101563ZM54.1899,18.22734357910156C54.0734,17.954543579101564,53.8177,17.788343579101564,53.5285,17.74844357910156L82.993,9.928203579101563C83.6397,9.806843579101562,84.1333,10.017803579101562,84.2539,10.469043579101562C84.305,10.642053579101562,84.2801,10.828613579101562,84.1855,10.982193579101562C84.0584,11.186643579101563,83.8026,11.335693579101562,83.4165,11.413893579101563L54.5532,19.080143579101563L54.1899,18.22734357910156Z" fill="#3A2C60" fill-opacity="1"/></g><g><path d="M1.95476689453125,45.66207912597656C2.40275689453125,45.70507912597657,2.80087689453125,45.37697912597656,2.84422689453125,44.92897912597656C3.14988689453125,41.74887912597656,3.78620689453125,38.60937912597656,4.74287689453125,35.561179125976565C4.87814689453125,35.131979125976564,4.6396568945312495,34.67437912597656,4.21032689453125,34.53927912597656C3.78098689453125,34.40427912597656,3.32351689453125,34.64307912597656,3.18876689453125,35.072479125976564C2.19850889453125,38.22917912597656,1.53953889453125,41.480279125976566,1.22251223453125,44.773479125976564C1.17856709453125,45.221279125976565,1.50679589453125,45.619579125976564,1.95476689453125,45.66207912597656ZM25.76566689453125,27.676579125976563C28.19206689453125,28.26887912597656,30.08666689453125,30.16337912597656,30.67886689453125,32.58977912597656L31.57896689453125,36.25107912597656C31.66856689453125,36.615079125976564,31.99496689453125,36.87087912597656,32.36986689453125,36.87087912597656C32.74466689453125,36.87087912597656,33.07106689453125,36.615079125976564,33.16076689453125,36.25107912597656L34.06076689453125,32.58977912597656C34.65306689453125,30.16337912597656,36.54756689453125,28.26887912597656,38.97396689453125,27.676579125976563L42.63526689453125,26.77657912597656C42.99916689453125,26.686979125976563,43.25506689453125,26.36047912597656,43.25506689453125,25.98567912597656C43.25506689453125,25.610879125976563,42.99916689453125,25.284379125976564,42.63526689453125,25.194779125976563L38.97396689453125,24.294739125976562C36.54756689453125,23.702479125976563,34.65306689453125,21.807969125976562,34.06076689453125,19.381539125976563L33.16076689453125,15.720267125976562C33.07106689453125,15.356298125976563,32.74466689453125,15.100479125976562,32.36986689453125,15.100479125976562C31.99496689453125,15.100479125976562,31.66856689453125,15.356298125976563,31.57896689453125,15.720267125976562L30.67886689453125,19.381539125976563C30.08666689453125,21.807969125976562,28.19206689453125,23.702479125976563,25.76566689453125,24.294739125976562L22.10436689453125,25.194779125976563C21.74046689453125,25.284379125976564,21.48456689453125,25.610879125976563,21.48456689453125,25.98567912597656C21.48456689453125,26.36047912597656,21.74046689453125,26.686979125976563,22.10436689453125,26.77657912597656L25.76566689453125,27.676579125976563ZM26.15506689453125,25.87567912597656C29.17056689453125,25.139279125976564,31.52506689453125,22.784799125976562,32.26146689453125,19.769249125976565L32.370666894531254,19.32451912597656L32.47976689453125,19.769249125976565C33.216266894531245,22.784799125976562,35.57066689453125,25.139279125976564,38.58626689453125,25.87567912597656L39.03096689453125,25.984879125976562L38.58626689453125,26.09397912597656C35.57066689453125,26.830479125976563,33.216266894531245,29.184879125976565,32.47976689453125,32.200479125976564L32.370666894531254,32.64517912597656L32.26146689453125,32.200479125976564C31.52506689453125,29.184879125976565,29.17056689453125,26.830479125976563,26.15506689453125,26.09397912597656L25.71026689453125,25.984879125976562L26.15506689453125,25.87567912597656ZM67.24766689453125,78.78137912597657C68.74986689453125,79.14787912597656,69.92286689453125,80.32057912597656,70.28986689453124,81.82277912597657L70.88446689453124,84.24027912597656C70.97406689453125,84.60427912597656,71.30056689453124,84.86007912597657,71.67536689453125,84.86007912597657C72.05016689453124,84.86007912597657,72.37666689453125,84.60427912597656,72.46626689453124,84.24027912597656L73.06006689453125,81.82277912597657C73.42716689453125,80.32037912597656,74.60056689453126,79.14767912597657,76.10316689453126,78.78137912597657L78.52056689453126,78.18677912597656C78.88346689453125,78.09607912597656,79.13806689453125,77.77017912597657,79.13826689453126,77.39617912597656C79.13846689453125,77.02217912597656,78.88416689453125,76.69597912597656,78.52146689453124,76.60487912597657L76.10396689453125,76.01037912597656C74.60146689453126,75.64387912597655,73.42816689453124,74.47117912597656,73.06086689453124,72.96887912597657L72.46706689453126,70.55137912597655C72.38006689453125,70.18497912597655,72.05276689453125,69.92627912597656,71.67616689453125,69.92627912597656C71.29956689453125,69.92627912597656,70.97226689453124,70.18497912597655,70.88526689453126,70.55137912597655L70.29066689453126,72.96887912597657C69.92406689453125,74.47117912597656,68.75086689453126,75.64407912597656,67.24846689453125,76.01037912597656L64.83096689453126,76.60487912597657C64.46816689453125,76.69577912597657,64.21376689453125,77.02187912597657,64.21376689453125,77.39587912597656C64.21376689453125,77.76977912597656,64.46816689453125,78.09587912597655,64.83096689453126,78.18677912597656L67.24766689453125,78.78137912597657ZM71.67536689453125,73.99597912597656C72.25856689453126,75.57087912597656,73.50036689453125,76.81257912597655,75.07516689453125,77.39587912597656C73.50036689453125,77.97907912597657,72.25856689453126,79.22077912597656,71.67536689453125,80.79567912597656C71.09166689453124,79.22107912597656,69.85006689453125,77.97947912597655,68.27556689453125,77.39587912597656C69.85026689453125,76.81237912597656,71.09196689453125,75.57077912597657,71.67536689453125,73.99597912597656Z" fill="#3A2C60" fill-opacity="1"/></g></g></g></svg>